<svg xmlns="http://www.w3.org/2000/svg" xmlns:xlink="http://www.w3.org/1999/xlink" xml:space="preserve" style="enable-background:new 0 0 351.073 248.25" viewBox="0 0 351.073 248.25">
  <defs>
    <path id="a" d="M-.001-.001h351.073V248.25H-.001z"/>
  </defs>
	<clipPath id="b">
    <use xlink:href="#a" style="overflow:visible"/>
  </clipPath>
	<g style="clip-path:url(#b)">
    <path d="M-.001-.001h351.073V248.25H-.001z" style="fill:#f9dba2"/>
		<path d="M-.001-.001h351.073V248.25H-.001z" style="fill:#231f20"/>
		<path d="M346.419 121.884c-2.854.179-5.72.629-8.408 1.642-2.647.997-5.163 2.2-7.924 2.885-4.542 1.124-9.198 1.411-13.863 1.11-5.184-.336-10.316-1.164-15.485-1.654-5.389-.512-10.753-1.342-15.982-2.775-4.935-1.351-9.858-3.043-14.184-5.826-3.944-2.538-7.996-5.708-12.914-5.761-5.687-.061-10.713 2.583-15.931 4.468-5.021 1.813-10.313 3.004-15.613 3.63-12.136 1.437-24.387 1.648-36.533 3.107-6.367.766-12.717 1.687-19.033 2.807-6.246 1.108-12.434 2.552-18.72 3.423-12.278 1.703-24.72 1.631-37.088 1.729-6.106.049-12.274.505-18.374.204-5.523-.273-10.99-1.076-16.444-1.966-5.85-.954-11.711-1.992-17.633-2.397-5.57-.382-11-.035-16.536.593-10.186 1.154-20.414 2.301-30.679 2.347-5.001.023-10.082-.167-15.076-.855V248.25h351.073V121.832c-1.546-.044-3.098-.044-4.653.052z" style="opacity:.5;fill:#8cd7f8"/>
		<path d="M348.947 130.143c-8.074-.063-16.167-.928-24.099-2.431-3.864-.732-7.654-1.893-11.528-2.539-5.726-.959-11.487-.877-17.247-.297-5.566.562-11.111 1.411-16.706 1.679-5.556.266-11.04-.08-16.514-1.077-10.77-1.963-21.462-5.838-32.53-5.566-6.09.15-11.912 1.903-17.883 2.927-5.918 1.017-11.882 1.767-17.865 2.267-6.212.52-12.439.825-18.673.952-6.191.127-12.322.174-18.477-.617-5.922-.762-11.761-2.093-17.655-.489-4.891 1.33-9.585 3.366-14.722 3.525-10.317.319-20.348-3.118-30.276-5.429-5.831-1.359-11.621-1.723-17.597-1.809-5.68-.081-11.568.116-17.106-1.341-5.053-1.33-9.705-3.65-14.332-6.026-4.438-2.278-8.778-4.686-13.88-4.915-8.709-.39-16.586 4.013-23.939 8.146-2.613 1.467-5.24 2.957-7.919 4.34V248.25h351.073V130.143c-.719.005-1.432.005-2.125 0z" style="opacity:.5;fill:#8cd7f8"/>
		<path d="M328.747 134.689c-6.629-.595-13.338-3.024-20.023-2.207-4.071.499-8.039 1.58-12.093 2.188-3.354.504-6.821.463-10.203.316-11.403-.495-22.705-3.242-34.154-2.741-5.965.262-11.762 1.54-17.765 1.342-5.575-.183-11.085-.984-16.6-1.776-5.907-.847-11.876-1.673-17.862-1.509-6.421.177-12.832.569-19.237 1.044-12.859.954-25.665 1.943-38.563 2.11-12.201.159-24.145 2.874-36.289 3.706-5.845.399-11.76.414-17.554-.561-6.358-1.068-12.636-2.247-19.078-2.742-6.02-.462-12.059-.597-18.093-.456-6.211.146-12.423.801-18.635.783-8.587-.028-17.081-1.178-25.588-2.192-2.337.1-4.674.169-7.011.194V248.25h351.072V135.941c-7.471.026-14.99-.593-22.324-1.252z" style="fill:#e49d6e"/>
		<g style="opacity:.3">
      <path d="M180.161 176.384c-6.052.37-12.173 1.121-18.228.423-12.07-1.391-23.92-5.04-36.174-4.476-6.202.284-12.408.336-18.614.459-3.263.063-6.529.139-9.792.288-2.992.138-6.114.107-9.011.943-2.379.689-4.642 1.682-6.968 2.512.341-.011.682-.018 1.023-.04 2.783-.169 5.528-.639 8.298-.954 6.105-.692 12.357-.223 18.501-.436 6.262-.216 12.549-.528 18.812-.193 6.101.325 12.063 1.446 18.059 2.554 6.311 1.165 12.863 2.761 19.289 3.004 5.913.224 11.702-1.471 17.544-2.138 5.898-.672 11.857.069 17.748-.626-1.988-.91-4.232-1.251-6.394-1.407-4.657-.332-9.435-.198-14.093.087zm87.644-22.027c-3.536.074-7.091-.136-10.571-.806-3.971-.763-7.886-2.006-11.914-2.438-3.557-.381-7.27-.405-10.787.32-3.514.725-6.843 2.085-10.326 2.934.708-.103 1.416-.205 2.127-.295 7.151-.908 14.049-.844 21.122.592 3.88.789 7.764 1.758 11.713 2.13 3.596.338 7.148.087 10.737-.23 6.465-.572 12.901-1.405 19.339-2.22-7.061-1.41-14.289-.136-21.44.013zm-110.401 1.537c5.691 0 11.437-.489 17.103.22 2.197.275 4.227.833 6.342 1.476 2.308.7 4.743 1.413 7.091.719-8.279-4.395-18.042-3.735-27.139-3.72-2.548.004-5.092-.258-7.636-.231-2.775.031-5.453.544-8.108 1.327-1.51.445-3.006.938-4.499 1.43.444-.089.888-.177 1.331-.263 5.186-.997 10.25-.958 15.515-.958zm96.104 42.427c-4.712 1.07-9.617 2.321-14.503 2.506 2.134.498 4.294.989 6.465 1.006 3.063.024 5.921-.877 8.868-1.598 10.802-2.639 21.821-4.762 32.956-5.141-11.196-2.199-22.858.74-33.786 3.227z" style="fill:#b07054"/>
    </g>
		<path d="M5.458 134.514c3.411-.486 6.726-.055 10.139.168 7.244.474 14.699 1.105 21.956.613 3.889-.263 7.639-1.302 11.499-1.79.122-.016.243-.026.365-.042-5.605.213-11.212.74-16.818.724-8.587-.028-17.081-1.178-25.588-2.192-2.337.1-4.674.169-7.011.194v3.184c1.834-.222 3.664-.603 5.458-.859zm227.932 1.146c3.195.525 6.501 1.035 9.751.788 3.153-.24 6.293-.895 9.417-1.38 5.665-.882 11.192-1.691 16.913-.829 6.117.92 12.086 2.062 18.307 1.896 5.656-.152 11.285-.89 16.901-1.527 4.408-.501 8.813-1.33 13.246-1.688-3.066-.502-6.136-.811-9.201-.436-4.071.499-8.039 1.58-12.093 2.188-3.354.504-6.821.463-10.203.316-11.403-.495-22.705-3.242-34.154-2.741-5.965.262-11.762 1.54-17.765 1.342-4.672-.153-9.299-.743-13.919-1.394 4.219 1.334 8.377 2.741 12.8 3.465zm-137.244 2.059c6.024 1.126 11.876 1.068 17.964.577 6.28-.508 12.53-1.288 18.799-1.902 6.33-.622 12.634-.848 18.99-1.048 6.317-.2 12.644-.493 18.926-1.214 6.423-.738 12.796-1.877 19.175-2.926 1.399-.229 2.803-.458 4.206-.681-4.469.207-8.935.493-13.396.823-12.859.954-25.665 1.943-38.563 2.11-12.201.159-24.145 2.874-36.289 3.706-4.064.279-8.164.359-12.234.061.805.175 1.612.343 2.422.494z" style="fill:#b07054"/>
		<g style="opacity:.5">
      <path d="M107.286 215.605c-.042 0-.09.086-.034.086.041 0 .091-.086.034-.086zM62.845 200.96c-6.41-1.034-12.407.192-18.764-.155-3.84-.211-7.643-.506-11.445-1.055-2.969-.43-6.001.084-8.932-.482-.341-.066-.834.613-.435.71 2.367.57 4.785.497 7.199.811 3.782.494 7.489 1.147 11.301 1.482 2.943.258 5.201.761 8.154.225 4.525-.821 7.867-1.148 12.486-.829.326.024.844-.641.436-.707zM128.28 203c-3.403.042-6.807-.03-10.206.108-3.458.139-6.547 1.619-9.963 1.891-7.739.616-15.508.549-23.281.706-.46.008-1.033.962-.377.983 7.28.231 14.34.816 21.622.307 3.571-.249 6.423-1.394 9.905-2.109 3.87-.793 7.944-.315 11.863-.75.503-.057 1.207-1.147.437-1.136zm-50.587-8.141c-3.169-.245-6.334.318-9.51.028-.407-.038-.981.779-.515.837 3.083.395 6.279.663 9.387.413.478-.038 1.341-1.223.638-1.278zm-37.952-44.302c-2.677-.32-5.429-.332-8.021-1.081-2.438-.705-5.356-.105-7.867-.033-.392.01-.885.823-.323.84 2.778.082 5.65-.001 8.308.819 2.392.739 5.234.21 7.658-.052.172-.02.528-.459.245-.493zm14.309 5.193c-1.848-.288-3.771-.136-5.64-.3-1.877-.163-3.479.017-5.304.46-.333.081-.624.784-.099.673 3.611-.76 7.109.281 10.734-.209.207-.029.678-.568.309-.624zm51.991-5.085c-6.073-1.353-12.415-.357-18.55-1.044-5.591-.626-10.959.369-16.556.399-.33.003-.822.775-.401.806 5.377.385 10.674-.697 15.997.357 3.072.61 6.347.205 9.461.425 3.187.227 6.58.225 9.723-.29.212-.034.72-.566.326-.653zm10.588 6.968c-1.942-.263-3.897.031-5.856-.279-1.851-.293-3.944.225-5.749-.121-.32-.063-.773.578-.404.657.76.167 1.283.105 2.072.004.803-.107 2.044.212 2.922.246 2.26.087 4.44.423 6.708.107.206-.03.668-.566.307-.614zM91.04 176.131c-3.993-.24-7.559.003-11.499-.04-4.49-.049-8.379-1.512-12.871-.573-.375.078-.927.971-.343.891 4.377-.598 8.292 1.066 12.61 1.259 4.066.18 7.878-.887 11.945-1.121.19-.01.439-.399.158-.416zm89.875 2.789c-4.5-.631-9.143-.194-13.672.007-2.094.093-3.917-.913-5.874-.825-2.281.101-4.629.431-6.903.28-.382-.024-.935.855-.455.917 1.554.195 3.089.116 4.653.188 2.216.103 4.254 1.28 6.43 1.246 5.099-.079 10.345-.326 15.396-.958.29-.036.927-.785.425-.855zm18.837-7.572c-.737.196-1.462-.178-2.141.023-1.609.477-3.348.65-5.023.859-3.001.375-5.426.682-8.324 1.597-.479.15-.952 1.207-.151 1.02 3.265-.758 6.421-.873 9.709-1.364 1.91-.286 4.323-.179 5.917-1.222.305-.2.762-1.113.013-.913zm-39.321-16.712c-2.293.31-4.708.621-7.023.273-2.299-.345-4.74.192-7.07.126-.431-.01-1.057.988-.516 1.037 2.544.235 5.072.518 7.623.525 2.463.008 4.671-.097 6.873-1.188.213-.105.628-.841.113-.773zm142.706 6.481c-3.779-.118-7.564-.13-11.345-.131-3.6-.003-6.823.859-10.319 1.504-1.395.257-2.98-.343-4.443-.151-1.346.177-2.822.247-4.125.619-4.148 1.185-9.439 1.644-13.73.969-.386-.062-.923.712-.485.789 7.035 1.246 13.863-.733 20.838-.528 3.543.104 6.865-1.725 10.414-1.953 4.268-.275 8.575-.088 12.849-.216.421-.012.948-.883.346-.902zm40.841.563c-7.044.842-14.28.2-21.234 1.594-.469.093-1.128 1.197-.42 1.095 6.894-1.001 14.649.518 21.32-1.444.441-.129 1.152-1.343.334-1.245zm-80.768 12.635c-1.804.162-3.577.111-5.331.568-2.891.754-5.501 1.626-8.545 1.72-2.753.086-5.642.204-8.348.671-3.091.536-5.312 1.143-8.463.449-.357-.079-.867.637-.454.74 4.918 1.206 10.206-.134 15.238-.298 5.434-.177 10.194-1.805 15.502-2.803.436-.084 1.105-1.109.401-1.047zm-36.046-26.01c-2.498-.714-4.99-1.197-7.602-1.322-1.227-.06-2.586.371-3.804.5-1.918.2-3.954-.152-5.841-.4-2.595-.338-5.193-.867-7.811-.944-.687-.021-2.282.751-2.89.987-1.932.753-4.116.705-6.166.741-.406.006-.901.854-.33.861 2.781.032 5.067-.095 7.689-.969 2.711-.903 7.161.682 9.934 1.072 2.453.343 4.869.396 7.305-.086 2.895-.574 6.065.57 9.02.555.388-.002 1.043-.839.496-.995zm70.483-2.821c-7.921-.034-16.204.169-24.101-.891-3.322-.445-7.047 1.017-10.278 1.529-4.065.646-7.899 1.33-12.046 1.479-.417.015-.932.894-.342.893 3.575-.014 6.953-.205 10.46-.827 3.763-.667 8.327-1.95 12.152-1.422 7.893 1.093 16.055.454 23.918-.142.28-.021.653-.616.237-.619zm32.13 1.105c-1.634-.061-3.283.032-4.917.062-.37.008-.827.781-.303.792 1.619.03 3.252.121 4.868.06.423-.016.962-.889.352-.914zm-88.088 71.919c-7.741.82-15.569.452-23.012 2.814-5.205 1.653-9.165 2.18-14.607 1.046-4.608-.96-9.389 1.088-14.154.067-.458-.098-1.116.816-.583.95 3.775.943 7.533.622 11.39.391 2.609-.156 5.219.81 7.822.989 1.952.134 3.869-.15 5.767-.524 1.85-.363 3.619-1.23 5.376-1.859 2.672-.958 5.328-1.487 8.181-1.77 4.445-.44 9.161-.471 13.518-1.313.329-.064.83-.847.302-.791zm75.533-18.456c-8.199.778-16.254 2.094-24.482 2.424-3.643.147-7.614 1.668-10.804 3.179-4.303 2.036-8.827 3.895-13.426 5.299-.415.126-.809 1.044-.129.876 8.334-2.053 16.278-7.152 24.975-7.492 4.046-.159 7.748-.492 11.702-1.292 3.948-.8 8.235-1.018 11.994-2.362.201-.073.602-.673.17-.632zm8.568 4.146c-3.002-.551-6.043.673-8.904 1.277-.34.072-.741.925-.226.841 1.24-.204 2.423-.6 3.661-.811 1.654-.284 3.375-.092 5.034-.431.263-.055.975-.778.435-.876zm-23.028 19.992c-3.859 1.144-7.462.891-11.414 1.502-4.037.626-7.998 1.623-11.965 2.538-.36.083-.789.997-.243.899 4.783-.852 9.668-1.985 14.546-2.157 3.691-.132 6.266.339 9.187-1.98.267-.211.523-.99-.111-.802zm19.788-3.753c-1.14-.249-2.327.4-3.434.596-1.703.301-3.41.522-5.129.73-.367.043-.807.846-.303.79 2.834-.313 5.817-.26 8.51-1.195.248-.085.888-.805.356-.921zm-138.318-11.061c-2.442-.624-4.753.224-7.159-.196-.707-.122-1.164-.19-1.906.003-1.798.471-3.413.364-5.236.321-.322-.007-.771.739-.381.764 4.775.328 9.363-.059 14.168.144.41.017 1.077-.893.514-1.036zM73.399 226.891c-2.118-.064-4.032-.353-6.035-.956-1.136-.343-2.555-1.219-3.8-1.151-2.06.111-3.866.403-5.948-.054-2.085-.458-4.166-.993-6.25-1.471-8.346-1.92-16.871-1.122-25.336-2.089-.487-.057-1.133.914-.601.978 8.83 1.055 17.665.625 26.316 2.872 3.321.863 6.602 2.224 10.079 1.521 2.167-.437 3.945 1.388 5.977 1.482 1.891.088 3.637-.161 5.455-.598.206-.049.497-.522.143-.534zm16.729 3.616c-.359-.065-.697.001-.985-.242-.343-.289-1.066.514-.714.812.347.292.834.335 1.282.264.214-.033.386-.169.491-.341.081-.131.172-.448-.074-.493zm-70.857-17.745c-.957-.745-2.439-.688-3.646-.701-2.161-.023-4.071.486-6.221-.081-.394-.104-.971.684-.508.829 1.626.51 3.175.531 4.876.446 1.687-.082 3.371.509 4.999.316.292-.035.832-.55.5-.809zm171.854 22.743c-3.766-.377-7.699.293-11.501.293-4.003.001-8.155-1.078-12.214-1.301-8.188-.451-16.478 1.354-24.634 1.732-.421.018-.944.907-.347.902 7.686-.063 15.336-.969 23.028-.984 2.137-.004 4.385.192 6.493.453 1.758.214 3.627.956 5.378.958 4.403.01 8.76-.073 13.121-.694.454-.065 1.466-1.279.676-1.359z" style="opacity:.5;fill:#996148"/>
    </g>
		<path d="M334.363 157.613c-5.889 1.611-11.728 3.615-17.773 4.571-5.921.937-11.937.689-17.907.659-6.296-.032-12.445.554-18.678 1.386-8.213 1.097-16.38 2.532-24.594 3.595 11.46-.643 22.979-1.483 34.248.827 3.855.79 7.643 1.817 11.531 2.469 4.105.688 8.233 1.209 12.366 1.686 7.611.879 15.239 1.685 22.733 3.321.339.075.373.55.093.715-5.926 3.496-12.74 5.523-19.407 7.052-3.112.714-6.259 1.337-9.428 1.817 11.636-.368 23.271-1.086 34.899-.206.321.024.543.418.277.667-1.813 1.697-4.042 2.61-6.257 3.659-2.534 1.199-4.673 2.758-6.832 4.535-3.875 3.189-7.681 5.02-12.73 5.58-3.035.336-6.085.375-9.13.574-3.403.224-6.551.853-9.812 1.837-3.516 1.06-7.003 2.217-10.523 3.261 8.544-1.167 17.267-1.827 25.759-.531.453.07.317.752-.104.77-9.253.368-18.705 2.131-27.183 5.956-3.733 1.685-7.126 4.15-11.021 5.462-3.28 1.102-6.681 1.492-10.122 1.677-4.883.261-9.624-.006-14.494-.402-1.261-.104-2.536-.202-3.814-.279-.061.075-.157.121-.29.108-4.715-.44-9.3.648-13.914 1.467-2.321.413-4.608.688-6.906.778-5.48.589-11.002.389-16.295-1.422-1.02-.049-2.042-.061-3.066-.009-4.636.233-9.122 1.301-13.655 2.216-2.753.556-5.542 1.08-8.352 1.231-2.907.156-5.821.028-8.732.149-6.219.26-12.413.87-18.6 1.509-12.479 1.292-24.794 2.315-37.331 1.29-23.529-1.923-47.319-3.837-70.111-10.352-.366-.104-.381-.659 0-.755 26.792-6.753 54.32-9.549 81.725-12.564-6.806-.692-13.664-.31-20.475.279-3.972.343-7.939.746-11.918 1.007-3.66.24-7.357.107-11.008.425-3.72.326-7.38 1.113-11.098 1.434-3.398.295-6.593.003-9.947-.514-7.245-1.114-14.466-2.421-21.584-4.184-.359-.089-.389-.685 0-.756 7.014-1.252 13.385-4.777 20.46-5.79 6.519-.932 13.018-.61 19.557-.79-6.591-1.775-13.704-1.637-20.432-1.008-3.921.369-7.826.919-11.697 1.644-4.042.756-7.968 1.913-11.977 2.808-4.286.959-8.679 1.702-13.087 1.605-4.346-.095-8.643-.74-12.918-1.488-4.775-.835-9.54-1.733-14.377-2.143-.145-.013-.289-.026-.434-.04v53.844H351.07v-94.314c-5.606.913-11.233 2.179-16.707 3.677z" style="opacity:.5;fill:#b07054"/>
		<path d="M42.474 154.962c10.597.194 20.616-4.606 31.182-5.059 9.791-.419 19.658 1.171 29.377-.263-9.272-.813-18.602-1.993-27.89-.923-4.949.571-9.84 1.532-14.781 2.164-4.72.602-9.081.606-13.755-.323-2.502-.499-4.992-1.099-7.519-1.468-2.521-.366-4.95-.32-7.483-.357-4.188-.063-8.323-.724-12.43-1.507-6.287-1.197-12.782-2.67-19.176-2.327v8.401c3.753-.445 7.509-.89 11.275-1.036 10.492-.402 20.733 2.507 31.2 2.698z" style="opacity:.4;fill:#b07054"/>
		<linearGradient id="c" x1="259.243" x2="289.4271" y1="23.3328" y2="89.1889" gradientUnits="userSpaceOnUse">
      <stop offset=".032" style="stop-color:#89d2d9"/>
			<stop offset=".2733" style="stop-color:#e36233"/>
			<stop offset=".7748" style="stop-color:#e79338"/>
			<stop offset="1" style="stop-color:#a7ada2"/>
    </linearGradient>
		<circle cx="274.222" cy="56.014" r="32.364" style="fill:url(#c)"/>
		<linearGradient id="d" x1="249.1361" x2="288.4187" y1="19.7575" y2="76.533" gradientUnits="userSpaceOnUse">
      <stop offset="0" style="stop-color:#8bceac"/>
			<stop offset="1" style="stop-color:#000"/>
    </linearGradient>
		<circle cx="274.222" cy="56.014" r="32.364" style="fill:url(#d)"/>
		<g style="opacity:.4">
      <path d="M253.835 57.203c3.287-.657 6.884-.183 9.794-2.167 2.705-1.841 4.035-5.161 6.759-6.956 1.427-.942 3.021-1.259 4.695-1.451 1.939-.222 3.683-.551 5.205-1.866.597-.517 2.185-1.805 1.532-2.766-.506-.747-1.702-.923-2.525-1.044-2.439-.36-5.138-.372-7.586-.131-1.729.171-3.354.638-4.956 1.302-1.872.776-3.64 1.679-5.67 1.974-3.508.51-6.898-.31-10.353-.8-1.854-.263-3.765-.418-5.623-.112-.223.037-.444.081-.662.13-1.667 3.899-2.587 8.191-2.587 12.698 0 3.118.441 6.13 1.264 8.981 1.913-1.328 3.556-2.99 5.294-4.532 1.597-1.418 3.269-2.832 5.419-3.26zm5.851 27.73c1.321-.319 2.592-.849 3.762-1.548 1.947-1.158 3.414-2.661 4.932-4.307 1.278-1.386 2.76-2.578 4.457-3.415 3.059-1.51 6.471-2.032 9.761-2.802 1.983-.463 3.944-.756 5.987-.607 1.889.14 3.738.537 5.584.953 2.16.488 4.407 1.04 6.656 1.243 3.632-5.231 5.762-11.583 5.762-18.435 0-6.084-1.678-11.774-4.599-16.636-.436.816-.956 1.613-1.46 2.412-.834 1.324-1.551 2.681-1.765 4.25-.251 1.843.091 3.64.504 5.432.371 1.618.753 3.249.539 4.918-.187 1.468-.959 3.125-2.148 4.044-1.331 1.027-3.198 1.412-4.337 2.68-.835.931-.715 1.917-.77 3.08-.041.874-.235 1.614-.753 2.333-.794 1.098-1.865 2.04-3.292 2.057-1.47.02-2.846-.615-4.187-1.141-2.004-.789-3.824-2.207-5.938-2.697-.863-.2-1.971-.45-2.844-.136-.521.186-.923.547-1.359.868-1.443 1.062-3.251 1.699-4.978 2.133-1.786.448-3.602.558-5.438.459-1.963-.106-3.784-.67-5.575-1.473-1.86-.834-3.663-1.65-5.612-2.261-1.077-.338-2.305-.249-3.415-.167-1.456.107-2.901.306-4.342.533-.359.057-.722.119-1.083.181 2.807 7.867 8.571 14.33 15.951 18.049zm25.695-51.532c.796-.272 1.563-.659 2.395-.816.954-.183 1.896-.381 2.874-.355.983.026 1.954.17 2.933.231.942.057 1.865.031 2.769-.055-1.189-1.115-2.464-2.141-3.81-3.068-2.537 1.993-7.457 2.404-10.046 3.639.902.576 1.822.787 2.885.424z" style="fill:#879ab4"/>
    </g>
		<g style="opacity:.4">
      <path d="M249.476 47.846c-2.196-.252-4.412-1.012-6.503-.27-.199.727-.369 1.466-.515 2.213 1.064-.11 2.148-.411 3.103-.66 1.309-.338 2.676-.705 3.915-1.283zm11.348 4.688c1.697.07 3.258-1.019 4.477-2.157-.108.016-.218.039-.326.061-1.338.785-2.722 1.488-4.151 2.096zm5.663-6.925c-.208.006-.419.022-.626.054-.345.092-.688.206-1.023.343-.178.102-.341.23-.484.386 1.578.092 2.93-.056 4.162-1.079-.638.018-1.268.072-1.887.182-.015.06-.063.113-.142.114zM242.19 60.654c.031.228.072.451.108.677 1.072-.384 2.189-.867 3.028-1.64-1.098.161-2.153.44-3.136.963zm33.593-17.567c.678-.323 1.309-.735 1.971-1.074-1.933.289-3.813.742-5.601 1.555 1.23-.047 2.501.052 3.63-.481zm-22.799 7.769c.813-.46 1.508-1.091 2.273-1.619-1.736.526-3.371 1.332-5.068 1.964.975.046 1.963.125 2.795-.345zm8.538 29.238c.705-.178 1.58-.345 2.134-.845.549-.497.997-1.047 1.566-1.474-2.225.404-4.46.763-6.627 1.424-1.53.469-3.227 1.092-4.527 2.132.576.458 1.17.895 1.774 1.314 1.086-.922 2.352-1.655 3.686-2.046.656-.193 1.327-.336 1.994-.505zm1.18-6.029c.712-.078 1.426-.073 2.158-.066 1.24.012 2.35-.144 3.429-.699-1.897-.185-3.868-.058-5.587.765zm43.224-24.568c-.058-.284-.12-.565-.185-.846-.69.385-1.381.765-2.074 1.144.758-.085 1.511-.178 2.259-.298zM278.25 69.631c.321-.273.614-.571.938-.798-1.371.153-2.776.801-4.076 1.23 1.091.113 2.304.276 3.138-.432zm21.25-8.736c1.012-.248 2.23-.403 2.722-1.38.093-.186.18-.372.268-.556-1.124.456-2.208.983-2.99 1.936zm1.978 4.106c1.378-.169 2.791-.255 4.035-.716.089-.335.172-.672.249-1.011-.662.068-1.326.146-1.947.391-.838.33-1.557.899-2.337 1.336z" style="fill:#879ab4"/>
    </g>
		<path d="M274.222 23.65c-17.876 0-32.363 14.489-32.363 32.364 0 17.875 14.487 32.364 32.363 32.364 17.875 0 32.363-14.489 32.363-32.364.001-17.874-14.488-32.364-32.363-32.364zm-2.419 55.973c-14.791 0-26.784-11.992-26.784-26.783 0-14.793 11.993-26.784 26.784-26.784 14.793 0 26.784 11.991 26.784 26.784 0 14.792-11.991 26.783-26.784 26.783z" style="opacity:.6;fill:#879ab4"/>
		<path d="M249.445 73.122c-4.381-6.916-5.882-12.957-6.179-17.595-.003-.014-.003-.028-.007-.044-.177-1.479-.247-2.956-.207-4.426-.844 4.837-.882 12.479 3.987 20.891 8.233 14.212 23.579 16.449 31.304 15.126.001.001-18.736 2.106-28.898-13.952z" style="fill:#a7dce0"/>
		<path d="M295.956 152.833c3.21-.497 6.446-.806 9.672-1.203 1.872-.231 3.734-.54 5.607-.766.143-2.235.335-4.468.347-6.705-.11-.111-.223-.219-.333-.323-3.196-1.568-6.509-2.885-9.834-4.175-.066-.021-.132-.039-.199-.059-.156.023-.313.046-.469.066-2.037.264-4.082.456-6.094.854-.566.555-1.126 1.112-1.689 1.63-2.296 2.121-4.672 4.173-6.718 6.541-.166.767-.3 1.542-.419 2.315 2.362.598 4.767.991 7.189 1.336.993.145 1.968.3 2.94.489z" style="fill:#e49d6e"/>
		<path d="M292.137 144.257c1.315-1.243 2.554-2.814 4.325-3.412 1.721-.58 3.518-.878 5.34-1.033-.13-.05-.257-.101-.387-.151-.066-.021-.132-.039-.199-.059-.156.023-.313.046-.469.066-2.037.264-4.082.456-6.094.854-.566.555-1.126 1.112-1.689 1.63-2.178 2.01-4.42 3.961-6.391 6.174 1.907-1.277 3.902-2.496 5.564-4.069z" style="fill:#e49d6e"/>
		<path d="M311.249 143.836c-2.962-1.452-6.025-2.689-9.104-3.889-.194.967-.337 1.949-.539 2.901-.332 1.566-.765 3.491-2.047 4.589-.661.565-1.34.822-2.18 1.015-1.605.367-3.194.793-4.793 1.182-2.014.489-4.309.749-6.324 1.478 2.222.536 4.479.911 6.755 1.234.993.144 1.968.299 2.94.488 3.21-.497 6.446-.806 9.672-1.203 1.872-.231 3.734-.54 5.607-.766.143-2.235.335-4.468.347-6.705-.111-.112-.224-.22-.334-.324z" style="opacity:.5;fill:#e49d6e"/>
		<path d="M311.235 150.864c.129-1.876.337-4.828.347-6.705-.11-.111-.223-.219-.333-.323-2.962-1.452-6.025-2.689-9.104-3.889-.194.967-.337 1.949-.539 2.901-.301 1.413-.689 3.113-1.703 4.238 2.371.526 9.9 3.425 11.332 3.778z" style="opacity:.5;fill:#e49d6e"/>
		<path d="M305 167.004c.867-.134 1.744-.218 2.616-.326.508-.061 1.012-.146 1.518-.208.039-.604.091-1.207.095-1.813-.031-.031-.061-.061-.091-.087-.865-.425-1.763-.781-2.663-1.131-.017-.004-.036-.009-.054-.016-.042.006-.084.012-.126.019-.552.072-1.105.124-1.65.23-.154.15-.305.302-.456.442-.623.573-1.265 1.13-1.818 1.769-.046.208-.081.419-.113.628.639.161 1.29.268 1.945.361.269.041.533.082.797.132z" style="fill:#faae71"/>
		<path d="M303.692 164.93c.417-.405.811-.816 1.344-1.066.336-.158.684-.285 1.036-.393-.477.058-.955.11-1.426.203-.154.15-.305.302-.456.442-.623.573-1.265 1.13-1.818 1.769-.004.014-.005.026-.007.039.429-.35.926-.604 1.327-.994z" style="fill:#e49d6e"/>
		<path d="M309.138 164.571c-.802-.395-1.63-.729-2.464-1.054-.052.262-.09.528-.146.786-.09.423-.207.945-.553 1.241-.179.153-.363.223-.59.274-.434.101-.865.216-1.298.321-.544.133-1.166.204-1.711.399.601.147 1.212.248 1.828.335.269.04.533.081.797.131.867-.134 1.744-.218 2.616-.326.508-.061 1.012-.146 1.518-.208.039-.604.091-1.207.095-1.813-.032-.029-.062-.059-.092-.086z" style="opacity:.5;fill:#c0855e"/>
		<path d="M309.134 166.471c.035-.506.092-1.305.095-1.813-.031-.031-.061-.061-.091-.087-.802-.395-1.63-.729-2.464-1.054-.052.262-.09.528-.146.786-.081.382-.187.842-.461 1.147.642.142 2.679.926 3.067 1.021z" style="opacity:.5;fill:#c0855e"/>
		<path d="M315.284 152.125c.609-.093 1.223-.153 1.836-.227.353-.043.707-.103 1.063-.145.027-.424.063-.847.065-1.273l-.063-.06c-.607-.298-1.236-.547-1.865-.792-.013-.004-.025-.008-.038-.012-.029.004-.06.009-.089.014-.387.049-.774.086-1.155.161-.107.104-.213.212-.319.31-.438.402-.888.79-1.275 1.24-.031.145-.058.292-.079.438.448.113.903.189 1.363.254.187.028.372.057.556.092z" style="fill:#faae71"/>
		<path d="M314.368 150.671c.293-.283.568-.57.941-.746.236-.111.479-.2.726-.275-.333.04-.668.077-.998.142-.107.104-.213.212-.319.31-.438.402-.888.79-1.275 1.24-.002.009-.003.019-.004.026.299-.246.649-.423.929-.697z" style="fill:#e49d6e"/>
		<path d="M318.184 150.42c-.562-.276-1.143-.51-1.726-.738-.037.183-.064.37-.102.55-.065.296-.147.662-.39.87-.125.107-.253.156-.413.193-.305.07-.605.149-.91.224-.381.092-.816.141-1.2.279.423.104.85.173 1.282.234.189.027.373.057.557.092.609-.093 1.223-.153 1.836-.227.353-.043.707-.103 1.063-.145.027-.424.063-.847.065-1.273-.019-.019-.041-.039-.062-.059z" style="opacity:.5;fill:#c0855e"/>
		<path d="M318.182 151.753c.025-.355.063-.915.065-1.273l-.063-.06c-.562-.276-1.143-.51-1.726-.738-.037.183-.064.37-.102.55-.059.267-.132.59-.325.804.451.1 1.879.649 2.151.717z" style="opacity:.5;fill:#c0855e"/>
		<path d="M308.707 151.762c.608-.094 1.222-.153 1.834-.228.356-.044.709-.104 1.063-.145.027-.425.065-.847.066-1.272-.021-.02-.043-.041-.063-.061-.607-.296-1.235-.547-1.866-.792-.012-.003-.025-.008-.038-.011-.028.005-.058.008-.088.012-.386.05-.774.087-1.156.163-.107.105-.212.21-.319.309-.436.403-.887.791-1.275 1.241-.03.145-.057.292-.079.439.448.113.905.188 1.364.254.188.026.372.057.557.091z" style="fill:#faae71"/>
		<path d="M307.792 150.309c.291-.284.566-.571.941-.748.236-.11.479-.2.727-.275-.336.041-.67.078-1.001.143-.107.105-.212.21-.319.309-.436.403-.887.791-1.275 1.241 0 .007-.002.017-.004.025.3-.245.649-.423.931-.695z" style="fill:#e49d6e"/>
		<path d="M311.607 150.057c-.562-.275-1.143-.511-1.727-.737-.036.184-.063.37-.102.551-.063.297-.145.662-.389.868-.125.107-.254.157-.414.193-.304.07-.604.151-.907.224-.384.094-.818.143-1.2.28.421.103.849.172 1.281.235.189.026.373.057.558.091.608-.094 1.222-.153 1.834-.228.356-.044.709-.104 1.063-.145.027-.425.065-.847.066-1.272-.022-.019-.043-.04-.063-.06z" style="opacity:.5;fill:#c0855e"/>
		<path d="M311.603 151.39c.025-.356.065-.916.066-1.272-.021-.02-.043-.041-.063-.061-.562-.275-1.143-.511-1.727-.737-.036.184-.063.37-.102.551-.057.268-.131.59-.323.803.45.098 1.879.647 2.149.716z" style="opacity:.5;fill:#c0855e"/>
		<path d="M274.013 155.16c1.466-.228 2.943-.369 4.418-.55.855-.104 1.705-.248 2.56-.349.067-1.021.154-2.041.16-3.063-.051-.049-.102-.1-.152-.147-1.46-.714-2.975-1.317-4.492-1.907-.03-.008-.062-.018-.092-.027-.07.011-.141.021-.214.03-.929.121-1.863.208-2.782.39-.259.254-.516.509-.772.745-1.048.97-2.134 1.906-3.069 2.987-.074.352-.136.705-.19 1.058 1.078.272 2.177.455 3.283.61.454.065.899.135 1.342.223z" style="fill:#faae71"/>
		<path d="M271.81 151.657c.702-.682 1.367-1.376 2.267-1.799.567-.268 1.154-.482 1.749-.664-.805.097-1.612.187-2.406.342-.259.254-.516.509-.772.745-1.048.97-2.134 1.906-3.069 2.987-.004.021-.007.042-.011.064.722-.589 1.564-1.017 2.242-1.675z" style="fill:#e49d6e"/>
		<path d="M280.999 151.05c-1.353-.663-2.753-1.228-4.159-1.776-.089.442-.153.892-.246 1.326-.151.715-.35 1.594-.935 2.094-.302.259-.611.378-.996.463-.733.17-1.458.365-2.189.542-.92.224-1.968.342-2.888.674 1.015.246 2.045.418 3.085.564.454.066.899.136 1.342.223 1.466-.228 2.943-.369 4.418-.55.855-.104 1.705-.248 2.56-.349.067-1.021.154-2.041.16-3.063-.051-.05-.102-.1-.152-.148z" style="opacity:.5;fill:#c0855e"/>
		<path d="M280.991 154.26c.059-.856.154-2.205.16-3.063-.051-.049-.102-.1-.152-.147-1.353-.663-2.753-1.228-4.159-1.776-.089.442-.153.892-.246 1.326-.137.645-.315 1.422-.777 1.936 1.082.24 4.521 1.561 5.174 1.724z" style="opacity:.5;fill:#c0855e"/>
		<path d="M177.673 148.023c3.209-.497 6.447-.806 9.672-1.203 1.871-.231 3.733-.54 5.607-.766.144-2.235.334-4.468.347-6.705-.111-.111-.223-.219-.334-.323-3.195-1.568-6.509-2.885-9.833-4.175-.067-.02-.133-.039-.199-.059-.158.024-.314.046-.469.067-2.038.264-4.083.457-6.095.854-.566.555-1.125 1.111-1.688 1.63-2.297 2.121-4.673 4.174-6.719 6.54-.166.767-.298 1.542-.419 2.316 2.362.597 4.767.991 7.189 1.336.995.144 1.97.298 2.941.488z" style="fill:#e49d6e"/>
		<path d="M173.855 139.447c1.314-1.244 2.554-2.815 4.326-3.413 1.719-.58 3.516-.878 5.339-1.032-.129-.05-.258-.101-.386-.151-.067-.02-.133-.039-.199-.059-.158.024-.314.046-.469.067-2.038.264-4.083.457-6.095.854-.566.555-1.125 1.111-1.688 1.63-2.179 2.011-4.421 3.962-6.391 6.174 1.907-1.278 3.899-2.497 5.563-4.07z" style="fill:#e49d6e"/>
		<path d="M192.966 139.026c-2.961-1.452-6.025-2.689-9.104-3.889-.194.968-.336 1.949-.538 2.901-.332 1.567-.766 3.491-2.046 4.588-.662.565-1.34.824-2.181 1.016-1.605.367-3.195.794-4.794 1.182-2.014.489-4.31.749-6.325 1.476 2.224.538 4.481.912 6.756 1.236.993.144 1.969.298 2.94.487 3.209-.497 6.447-.806 9.672-1.203 1.871-.231 3.733-.54 5.607-.766.144-2.235.334-4.468.347-6.705-.111-.111-.223-.219-.334-.323z" style="opacity:.5;fill:#e49d6e"/>
		<path d="M192.953 146.054c.128-1.875.337-4.828.347-6.705-.111-.111-.223-.219-.334-.323-2.961-1.452-6.025-2.689-9.104-3.889-.194.968-.336 1.949-.538 2.901-.301 1.414-.689 3.114-1.703 4.239 2.371.525 9.899 3.424 11.332 3.777z" style="opacity:.5;fill:#e49d6e"/>
		<path d="M186.717 162.195c.868-.135 1.744-.219 2.618-.326.506-.063 1.01-.146 1.518-.208.038-.604.091-1.209.094-1.815-.03-.028-.061-.06-.09-.087-.866-.424-1.762-.781-2.663-1.13-.017-.006-.035-.011-.054-.017-.042.007-.082.014-.125.018-.552.072-1.105.124-1.65.231-.154.152-.304.301-.456.442-.623.574-1.265 1.129-1.819 1.77-.045.208-.08.417-.112.627.638.162 1.29.268 1.944.362.267.04.532.083.795.133z" style="fill:#faae71"/>
		<path d="M185.409 160.119c.418-.403.812-.814 1.344-1.066.337-.159.684-.286 1.036-.393-.477.058-.954.11-1.426.202-.154.152-.304.301-.456.442-.623.574-1.265 1.129-1.819 1.77-.003.013-.003.026-.006.038.429-.35.926-.603 1.327-.993z" style="fill:#e49d6e"/>
		<path d="M190.856 159.76c-.801-.394-1.631-.728-2.463-1.052-.054.262-.092.527-.147.784-.089.424-.206.945-.553 1.241-.18.153-.363.223-.591.275-.434.1-.864.216-1.297.321-.544.132-1.166.202-1.711.4.602.145 1.211.246 1.827.335.27.038.534.081.797.132.868-.135 1.744-.219 2.618-.326.506-.063 1.01-.146 1.518-.208.038-.604.091-1.209.094-1.815-.032-.029-.063-.06-.092-.087z" style="opacity:.5;fill:#c0855e"/>
		<path d="M190.853 161.662c.034-.508.091-1.306.094-1.815-.03-.028-.061-.06-.09-.087-.801-.394-1.631-.728-2.463-1.052-.054.262-.092.527-.147.784-.081.384-.187.842-.46 1.148.64.142 2.677.925 3.066 1.022z" style="opacity:.5;fill:#c0855e"/>
		<path d="M197.002 147.315c.608-.094 1.222-.153 1.835-.227.355-.044.707-.104 1.062-.146.027-.424.063-.847.067-1.272-.021-.02-.043-.04-.063-.06-.607-.298-1.236-.548-1.866-.792-.011-.004-.025-.008-.038-.012-.029.004-.058.009-.089.013-.385.049-.773.087-1.155.161-.107.105-.213.211-.32.31-.436.402-.887.791-1.274 1.24-.031.146-.057.292-.079.438.447.113.902.189 1.363.254.187.028.373.058.557.093z" style="fill:#faae71"/>
		<path d="M196.086 145.861c.292-.282.569-.57.942-.746.235-.111.479-.2.724-.275-.333.04-.668.077-.998.142-.107.105-.213.211-.32.31-.436.402-.887.791-1.274 1.24-.003.008-.003.018-.005.026.301-.245.65-.424.931-.697z" style="fill:#e49d6e"/>
		<path d="M199.902 145.61c-.562-.276-1.143-.511-1.727-.738-.038.183-.064.37-.102.55-.063.297-.146.662-.389.869-.125.107-.253.156-.413.192-.305.07-.606.151-.909.225-.382.092-.817.141-1.2.28.423.102.85.173 1.282.234.188.026.374.057.558.092.608-.094 1.222-.153 1.835-.227.355-.044.707-.104 1.062-.146.027-.424.063-.847.067-1.272-.022-.019-.043-.039-.064-.059z" style="opacity:.5;fill:#c0855e"/>
		<path d="M199.899 146.942c.025-.355.063-.915.067-1.272-.021-.02-.043-.04-.063-.06-.562-.276-1.143-.511-1.727-.738-.038.183-.064.37-.102.55-.059.268-.131.59-.324.803.45.101 1.878.65 2.149.717z" style="opacity:.5;fill:#c0855e"/>
		<path d="M190.424 146.953c.608-.094 1.221-.153 1.835-.228.355-.043.708-.104 1.063-.145.027-.424.064-.847.066-1.272-.021-.021-.043-.041-.063-.062-.606-.296-1.234-.546-1.865-.791-.013-.004-.026-.008-.037-.011-.029.004-.06.008-.089.012-.385.05-.774.087-1.155.162-.108.106-.213.212-.321.31-.435.402-.886.791-1.274 1.241-.031.145-.057.292-.08.438.448.113.904.188 1.364.254.188.027.372.056.556.092z" style="fill:#faae71"/>
		<path d="M189.51 145.499c.29-.284.566-.571.94-.747.236-.111.48-.2.727-.275-.336.04-.67.076-.999.141-.108.106-.213.212-.321.31-.435.402-.886.791-1.274 1.241-.002.007-.002.017-.004.026.299-.246.648-.424.931-.696z" style="fill:#e49d6e"/>
		<path d="M193.325 145.246c-.562-.275-1.143-.51-1.727-.738-.036.184-.064.371-.102.551-.063.297-.144.662-.388.869-.125.107-.255.156-.413.193-.304.07-.605.15-.908.224-.384.092-.817.141-1.199.279.42.102.849.173 1.28.235.189.027.374.057.558.092.608-.094 1.221-.153 1.835-.228.355-.043.708-.104 1.063-.145.027-.424.064-.847.066-1.272-.024-.019-.045-.039-.065-.06z" style="opacity:.5;fill:#c0855e"/>
		<path d="M193.321 146.58c.026-.355.064-.915.066-1.272-.021-.021-.043-.041-.063-.062-.562-.275-1.143-.51-1.727-.738-.036.184-.064.371-.102.551-.057.268-.129.59-.322.804.449.099 1.878.648 2.148.717z" style="opacity:.5;fill:#c0855e"/>
		<path d="M155.732 150.349c1.465-.227 2.943-.369 4.417-.549.856-.105 1.707-.247 2.56-.349.066-1.02.154-2.04.159-3.063-.051-.048-.101-.099-.151-.147-1.46-.714-2.975-1.316-4.493-1.907-.029-.009-.06-.017-.09-.026-.072.011-.143.022-.215.03-.93.12-1.863.208-2.783.39-.258.254-.514.509-.771.744-1.049.97-2.135 1.907-3.069 2.988-.075.351-.137.705-.191 1.058 1.079.272 2.178.453 3.284.61.453.064.899.135 1.343.221z" style="fill:#faae71"/>
		<path d="M153.526 146.848c.703-.683 1.368-1.377 2.268-1.799.568-.267 1.153-.483 1.748-.664-.805.097-1.611.187-2.406.342-.258.254-.514.509-.771.744-1.049.97-2.135 1.907-3.069 2.988-.005.021-.007.043-.011.064.723-.59 1.564-1.019 2.241-1.675z" style="fill:#e49d6e"/>
		<path d="M162.717 146.24c-1.354-.663-2.753-1.228-4.158-1.775-.09.441-.154.89-.247 1.325-.151.715-.349 1.594-.935 2.094-.3.258-.611.378-.995.464-.734.169-1.459.362-2.189.541-.921.224-1.969.342-2.889.672 1.014.247 2.045.417 3.085.566.454.065.9.136 1.344.222 1.465-.227 2.943-.369 4.417-.549.856-.105 1.707-.247 2.56-.349.066-1.02.154-2.04.159-3.063-.052-.049-.101-.1-.152-.148z" style="opacity:.5;fill:#c0855e"/>
		<path d="M162.709 149.45c.059-.856.154-2.204.159-3.063-.051-.048-.101-.099-.151-.147-1.354-.663-2.753-1.228-4.158-1.775-.09.441-.154.89-.247 1.325-.137.645-.314 1.422-.778 1.936 1.084.24 4.523 1.562 5.175 1.724z" style="opacity:.5;fill:#c0855e"/>
		<path d="M51.179 170.923c1.513-.234 3.04-.381 4.561-.569.884-.108 1.762-.253 2.645-.361.067-1.053.158-2.106.164-3.161-.052-.054-.105-.104-.157-.153-1.508-.74-3.071-1.36-4.64-1.969-.03-.009-.062-.019-.092-.028-.074.011-.148.022-.221.031-.961.125-1.925.216-2.875.403-.268.262-.531.523-.796.77-1.084.999-2.204 1.967-3.169 3.084-.078.361-.14.728-.197 1.091 1.113.282 2.249.469 3.391.632.467.068.927.139 1.386.23z" style="fill:#e49d6e"/>
		<path d="M49.377 166.878c.619-.587 1.204-1.327 2.04-1.61.811-.273 1.658-.414 2.519-.486-.061-.024-.122-.049-.184-.071-.03-.009-.062-.019-.092-.028-.074.011-.148.022-.221.031-.961.125-1.925.216-2.875.403-.268.262-.531.523-.796.77-1.027.947-2.085 1.868-3.014 2.912.898-.605 1.838-1.18 2.623-1.921z" style="fill:#e49d6e"/>
		<path d="M58.392 166.679c-1.397-.684-2.843-1.268-4.295-1.834-.092.456-.158.919-.254 1.368-.158.738-.361 1.646-.965 2.165-.311.266-.632.387-1.028.478-.756.173-1.507.375-2.261.558-.949.231-2.031.354-2.984.696 1.049.254 2.114.43 3.188.584.468.067.928.138 1.387.229 1.513-.234 3.04-.381 4.561-.569.884-.108 1.762-.253 2.645-.361.067-1.053.158-2.106.164-3.161-.054-.054-.107-.104-.158-.153z" style="opacity:.5;fill:#e49d6e"/>
		<path d="M58.385 169.993c.061-.883.159-2.276.164-3.161-.052-.054-.105-.104-.157-.153-1.397-.684-2.843-1.268-4.295-1.834-.092.456-.158.919-.254 1.368-.143.666-.324 1.469-.803 2 1.118.247 4.669 1.613 5.345 1.78z" style="opacity:.5;fill:#e49d6e"/>
		<path d="M57.929 170.869c.723-.113 1.454-.182 2.181-.272.423-.052.843-.123 1.266-.173.032-.504.075-1.007.079-1.512-.025-.025-.051-.05-.075-.073-.722-.354-1.469-.651-2.219-.941-.015-.005-.029-.009-.045-.014-.036.005-.07.011-.105.016-.46.059-.922.103-1.376.193-.127.125-.254.251-.381.367-.518.48-1.055.942-1.517 1.477-.036.173-.066.346-.093.522.532.135 1.076.224 1.622.301.222.032.443.066.663.109z" style="fill:#faae71"/>
		<path d="M56.84 169.139c.347-.338.675-.68 1.119-.89.281-.131.57-.237.864-.327-.398.049-.797.091-1.189.17-.127.125-.254.251-.381.367-.518.48-1.055.942-1.517 1.477-.001.01-.003.021-.006.032.359-.293.774-.504 1.11-.829z" style="fill:#e49d6e"/>
		<path d="M61.379 168.839c-.668-.329-1.359-.606-2.054-.878-.044.219-.076.441-.122.654-.076.353-.172.788-.461 1.035-.15.128-.302.187-.494.23-.361.083-.721.179-1.082.267-.454.11-.972.168-1.426.332.501.122 1.01.206 1.524.279.224.033.444.067.664.11.723-.113 1.454-.182 2.181-.272.423-.052.843-.123 1.266-.173.032-.504.075-1.007.079-1.512-.024-.024-.051-.049-.075-.072z" style="opacity:.5;fill:#c0855e"/>
		<path d="M61.376 170.424c.03-.423.076-1.088.079-1.512-.025-.025-.051-.05-.075-.073-.668-.329-1.359-.606-2.054-.878-.044.219-.076.441-.122.654-.068.32-.155.704-.384.958.533.117 2.234.772 2.556.851z" style="opacity:.5;fill:#c0855e"/>
		<path d="M180.933 207.18c1.513-.234 3.04-.381 4.562-.569.884-.108 1.762-.254 2.645-.36.068-1.054.158-2.106.164-3.162-.052-.053-.104-.104-.157-.152-1.507-.74-3.069-1.361-4.638-1.969-.031-.009-.063-.018-.094-.027-.075.011-.148.021-.222.03-.96.125-1.924.216-2.874.404-.266.262-.53.522-.795.769-1.084.999-2.206 1.968-3.17 3.084-.079.361-.142.729-.198 1.092 1.113.281 2.248.467 3.391.631.467.067.927.138 1.386.229z" style="fill:#e49d6e"/>
		<path d="M179.13 203.134c.622-.586 1.206-1.327 2.041-1.609.812-.273 1.659-.414 2.52-.486-.061-.025-.122-.049-.183-.072-.031-.009-.063-.018-.094-.027-.075.011-.148.021-.222.03-.96.125-1.924.216-2.874.404-.266.262-.53.522-.795.769-1.027.947-2.086 1.868-3.016 2.912.899-.604 1.84-1.179 2.623-1.921z" style="fill:#e49d6e"/>
		<path d="M188.145 202.936c-1.397-.685-2.843-1.269-4.294-1.834-.092.456-.159.918-.253 1.368-.159.739-.36 1.646-.966 2.165-.312.265-.632.386-1.028.478-.757.173-1.508.374-2.262.558-.949.23-2.034.354-2.984.696 1.049.254 2.115.43 3.188.584.468.067.928.139 1.387.23 1.513-.234 3.04-.381 4.562-.569.884-.108 1.762-.254 2.645-.36.068-1.054.158-2.106.164-3.162-.053-.055-.106-.106-.159-.154z" style="opacity:.5;fill:#e49d6e"/>
		<path d="M188.139 206.25c.061-.884.159-2.276.164-3.162-.052-.053-.104-.104-.157-.152-1.397-.685-2.843-1.269-4.294-1.834-.092.456-.159.918-.253 1.368-.142.667-.325 1.469-.804 1.999 1.118.248 4.669 1.614 5.344 1.781z" style="opacity:.5;fill:#e49d6e"/>
		<path d="M187.684 207.126c.723-.113 1.454-.182 2.183-.273.421-.052.842-.122 1.264-.173.033-.504.076-1.007.079-1.512-.026-.026-.051-.05-.076-.074-.721-.354-1.469-.651-2.22-.942a.73182.73182 0 0 1-.044-.013c-.035.004-.071.01-.106.015-.458.059-.921.102-1.375.193-.128.125-.253.25-.38.366-.519.479-1.056.943-1.517 1.477-.037.173-.068.347-.095.523.533.134 1.075.223 1.621.301.226.034.446.069.666.112z" style="fill:#faae71"/>
		<path d="M186.594 205.395c.347-.337.676-.68 1.12-.89.28-.131.571-.236.865-.327-.399.049-.797.092-1.19.17-.128.125-.253.25-.38.366-.519.479-1.056.943-1.517 1.477-.002.011-.004.022-.007.032.359-.291.775-.502 1.109-.828z" style="fill:#e49d6e"/>
		<path d="M191.134 205.095c-.669-.329-1.36-.607-2.054-.877-.044.218-.076.44-.123.654-.074.353-.173.788-.461 1.035-.149.129-.303.187-.493.23-.361.083-.72.179-1.08.268-.455.11-.973.169-1.429.332.502.122 1.013.206 1.524.28.226.032.446.067.665.11.723-.113 1.454-.182 2.183-.273.421-.052.842-.122 1.264-.173.033-.504.076-1.007.079-1.512-.025-.026-.05-.05-.075-.074z" style="opacity:.5;fill:#c0855e"/>
		<path d="M191.13 206.681c.03-.424.076-1.088.079-1.512-.026-.026-.051-.05-.076-.074-.669-.329-1.36-.607-2.054-.877-.044.218-.076.44-.123.654-.067.319-.153.703-.383.956.535.119 2.235.773 2.557.853z" style="opacity:.5;fill:#c0855e"/>
		<path d="M282.179 199.354c1.514-.233 3.04-.379 4.562-.567.883-.108 1.762-.255 2.645-.361.067-1.055.158-2.108.163-3.163-.051-.053-.105-.102-.157-.153-1.508-.739-3.071-1.361-4.639-1.969-.03-.01-.064-.017-.094-.027-.073.012-.148.023-.222.032-.959.124-1.925.216-2.874.402-.268.262-.53.524-.796.77-1.085 1.001-2.205 1.968-3.169 3.084-.078.363-.14.728-.197 1.093 1.113.281 2.248.466 3.391.63.47.066.929.14 1.387.229z" style="fill:#e49d6e"/>
		<path d="M280.378 195.308c.619-.585 1.204-1.327 2.04-1.608.811-.273 1.658-.415 2.52-.488-.061-.022-.123-.046-.184-.071-.03-.01-.064-.017-.094-.027-.073.012-.148.023-.222.032-.959.124-1.925.216-2.874.402-.268.262-.53.524-.796.77-1.028.947-2.086 1.868-3.015 2.912.901-.604 1.841-1.18 2.625-1.922z" style="fill:#e49d6e"/>
		<path d="M289.393 195.11c-1.397-.685-2.842-1.268-4.295-1.833-.09.456-.157.918-.255 1.368-.156.739-.36 1.646-.965 2.164-.31.268-.632.388-1.027.478-.757.175-1.507.375-2.262.559-.949.23-2.032.353-2.983.697 1.049.253 2.113.429 3.187.582.469.067.928.141 1.387.229 1.514-.233 3.04-.379 4.562-.567.883-.108 1.762-.255 2.645-.361.067-1.055.158-2.108.163-3.163-.052-.053-.106-.103-.157-.153z" style="opacity:.5;fill:#e49d6e"/>
		<path d="M289.386 198.425c.061-.885.159-2.277.163-3.163-.051-.053-.105-.102-.157-.153-1.397-.685-2.842-1.268-4.295-1.833-.09.456-.157.918-.255 1.368-.141.667-.322 1.468-.802 1.998 1.119.25 4.67 1.617 5.346 1.783z" style="opacity:.5;fill:#e49d6e"/>
		<path d="M288.93 199.3c.724-.111 1.454-.182 2.182-.271.423-.052.844-.122 1.267-.173.032-.504.075-1.009.077-1.514-.023-.024-.05-.049-.074-.073-.722-.353-1.47-.65-2.22-.941-.014-.005-.029-.009-.044-.014-.035.006-.071.011-.106.015-.46.06-.921.104-1.375.193-.127.126-.254.251-.381.369-.518.479-1.054.941-1.517 1.476-.036.174-.066.349-.094.523.534.135 1.076.224 1.622.301.224.033.443.066.663.109z" style="fill:#faae71"/>
		<path d="M287.841 197.569c.347-.336.676-.679 1.12-.888.28-.133.57-.239.863-.329-.396.049-.795.093-1.188.169-.127.126-.254.251-.381.369-.518.479-1.054.941-1.517 1.476-.001.011-.002.021-.004.032.356-.293.771-.503 1.107-.829z" style="fill:#e49d6e"/>
		<path d="M292.381 197.27c-.668-.327-1.36-.606-2.055-.878-.044.219-.076.441-.122.654-.075.355-.172.789-.461 1.037-.149.127-.302.186-.493.229-.36.083-.72.179-1.082.267-.453.11-.972.169-1.426.333.5.12 1.012.204 1.523.278.225.034.444.067.664.11.724-.111 1.454-.182 2.182-.271.423-.052.844-.122 1.267-.173.032-.504.075-1.009.077-1.514-.023-.023-.05-.048-.074-.072z" style="opacity:.5;fill:#c0855e"/>
		<path d="M292.378 198.857c.029-.423.075-1.09.077-1.514-.023-.024-.05-.049-.074-.073-.668-.327-1.36-.606-2.055-.878-.044.219-.076.441-.122.654-.068.32-.155.704-.385.958.536.119 2.235.771 2.559.853z" style="opacity:.5;fill:#c0855e"/>
		<path d="M114.927 201.248c-.382-1.98-1.776-4.223-4.517-5.29-2.953-1.148-6.721-.763-9.737-.723-9.042.12-18.172-.786-27.289-1.536-18.397-1.514-36.785-2.523-55.01-2.335-10.541.108-20.941.758-31.13 1.958l-11.384 68.095c6.069.394 12.124.601 18.067.234 2.502-.153 4.945-.519 7.463-.615 2.255-.084 4.537-.02 6.829.135 4.591.31 9.233.903 13.798.874 8.17-.053 14.902-2.64 21.746-4.968 3.162-1.075 6.383-2.12 9.836-2.79 2.605-.504 5.18-1.063 7.736-1.649.819-.313 1.635-.629 2.444-.957 3.369-1.361 6.729-2.788 9.872-4.371 3.004-1.51 5.627-3.337 8.174-5.191 5.565-4.049 11.452-7.888 16.822-12.066 2.611-2.034 5.097-4.165 7.262-6.454 2.112-2.232 3.681-4.841 4.986-7.39 1.412-2.75 2.832-5.494 3.43-8.461.436-2.168 1.044-4.217.602-6.5z" style="fill:#b66651"/>
		<path d="M-3.627 209.67c8.391-1.441 16.807-3.112 25.648-3.524 4.285-.199 8.714-.139 12.713-1.078 3.722-.873 6.965-2.328 10.051-3.908 1.092-.557 2.216-1.097 3.272-1.686.954-.534 2.221-1.195 2.606-2.063.879-1.979-5.248-2.517-6.995-2.763-7.835-1.097-15.719-2.438-23.582-2.879-2.937-.164-5.859-.222-8.777-.249-8.127.274-16.161.871-24.065 1.801l-2.989 17.877c4.108-.371 8.135-.845 12.118-1.528z" style="opacity:.3;fill:#e49d6e"/>
		<path d="M75.83 211.221c3.787-2.009 7.593-4.013 11.098-6.248 1.387-.885 2.802-1.753 4.155-2.662 1.384-.929 3.022-1.994 3.604-3.34.84-1.944-1.649-2.49-3.905-2.87-2.643-.447-5.238-.977-7.907-1.235-2.28-.221-4.55-.338-6.814-.398.942.064 1.883.134 2.822.23 2.727.28 5.652.604 8.316 1.262 1.218.3 2.621.941 2.963 1.871.864 2.335-2.73 4.507-4.539 5.947-3.183 2.533-6.749 4.827-9.793 7.443zM66.703 222c1.292-.974 2.403-2.048 3.479-3.145-3.099 1.853-5.854 3.972-8.9 5.871 2.031-.695 3.885-1.572 5.421-2.726zm7.596 8.332c-1.846.667-3.8 1.182-5.7 1.782-4.666 1.474-7.909 4.124-11.276 6.677-1.805 1.37-3.61 2.737-5.502 4.048 2.441-1.176 4.912-2.326 7.145-3.679 3.395-2.058 5.903-4.65 10.203-5.955 2.134-.648 4.44-1.078 6.507-1.813 2.178-.776 3.883-1.902 5.44-3.182 1.289-1.058 2.501-2.164 3.788-3.217-1.455.87-2.932 1.723-4.468 2.527-1.947 1.018-3.957 2.022-6.137 2.812zm-76.306-28.704c-2.811.159-5.618.373-8.182 1.037 7.806.374 15.242-.644 22.538-1.943-1.31.075-2.619.148-3.926.229-3.481.218-6.944.478-10.43.677zm31.556 3.194c2.163-.401 4.241-.894 6.294-1.427-10.345 1.385-21.224 1.843-31.385 3.589 8.545-.249 16.988-.659 25.091-2.162zM5.477 193.337c3.787-.153 7.582-.265 11.369-.417 3.849-.153 7.659-.471 11.516-.584 3.903-.117 7.842-.024 11.76-.06 2.967-.028 5.913-.145 8.866-.229-10.238-.519-20.451-.788-30.615-.682-10.541.108-20.941.758-31.13 1.958l-.245 1.467c6.036-.81 12.241-1.204 18.479-1.453z" style="fill:#e49d6e"/>
		<path d="M76.584 196.26c-1.385-.457-2.899-.701-4.335-.998-2.379-.491-4.734-1.027-7.06-1.68-.157-.044-.423.153-.242.21 3.665 1.142 7.574 1.677 11.211 2.833 5.108 1.622.863 5.396-.925 7.165-2.389 2.364-4.726 4.886-7.716 6.895-1.499 1.008-3.736 1.188-5.776 1.466-2.3.314-4.595.64-6.894.953-4.276.584-8.497 1.286-12.802 1.811-4.298.525-8.662.912-13.015 1.304-8.738.787-17.47 1.593-26.218 2.353-4.837.419-9.848.395-14.789.399-.104.001-.268.172-.101.181 8.764.519 17.144-.486 25.597-1.182 8.776-.722 17.586-1.371 26.277-2.33 4.15-.457 8.248-1.043 12.31-1.695 2.24-.358 4.535-.626 6.796-.939 2.065-.288 4.25-.464 6.228-.918 1.719-.393 3.081-1.206 4.273-2.146-.667.925-1.286 1.865-1.811 2.857-1.053 1.996-3.275 3.046-5.307 4.475-.678.477-1.436.893-2.021 1.43-.759.693-1.43 1.416-2.242 2.08-1.78 1.45-3.776 2.761-5.632 4.165-.476-.181-1.097-.291-1.521-.403-1.006-.269-1.744-.501-2.833-.557-1.343-.071-2.684-.111-4.028-.188-2.833-.163-5.646-.194-8.469-.274-5.8-.162-11.344.601-17.105.629-.174.001-.36.238-.091.241 4.673.034 9.191-.519 13.847-.536 4.832-.02 9.715.385 14.564.533 1.817.057 3.319.429 5.045.91 1.527.425-.819 1.585-1.262 1.826-.945.518-2.154.895-3.209 1.306-1.942.758-3.87 1.516-5.769 2.318-2.093.886-4.336 1.501-6.587 2.193-.233.072-.416.435.005.34 2.406-.539 4.643-1.277 6.767-2.169 2.333-.98 4.728-1.884 7.08-2.841 1.496-.609 3.36-1.208 4.133-2.356.259-.384.084-.646-.269-.839 1.855-1.262 3.978-2.451 5.55-3.887 1.551-1.417 3.061-2.824 4.96-4.018 1.665-1.046 3.316-2.028 4.431-3.42.618-.771.935-1.752 1.381-2.586.284-.529.674-.98 1.128-1.433.214-.212.311-.531.454-.806.596-.541 1.16-1.09 1.719-1.601 2.289-2.092 4.795-4.292 6.373-6.726 1.129-1.738.779-3.39-2.1-4.345z" style="fill:#b07054"/>
		<path d="M99.408 225.458c-.126-.542-.085-1.042-.006-1.567.072-.477-.054-.956-.079-1.443-.055-1.101-.135-2.203-.264-3.315-.125-1.083-.29-2.129-.689-3.205-.437-1.167-1.621-2.048-2.459-3.112-.057-.074-.161-.087-.263-.064 1.054-1.497 1.858-3.132 2.768-4.634 1.389-2.296 2.938-4.533 4.21-6.873.078-.144-.272-.091-.325-.004-1.67 2.741-3.599 5.384-5.249 8.134-.759 1.264-1.579 2.528-2.401 3.771-.995 1.501-2.724 2.79-4.388 3.922-2.975 2.023-5.996 3.768-9.685 5.182-3.539 1.355-7.207 2.565-10.645 4.029-3.335 1.422-6.304 3.097-9.247 4.859-1.633.977-3.303 1.553-5.593 1.639-2.176.081-4.309.397-6.419.651-4.338.52-8.576 1.249-12.929 1.74-4.332.488-8.682.929-13.013 1.423-3.233.369-6.53.328-9.825.493-2.935.145-5.642.886-8.297 1.56-6.195 1.578-12.807 2.453-19.184 3.718-.185.038-.38.365-.06.316 4.159-.626 8.272-1.365 12.352-2.145 3.767-.721 7.343-1.71 11.072-2.486 4.063-.844 8.521-.45 12.74-.873 4.322-.434 8.631-.918 12.942-1.378 4.392-.47 8.66-1.169 13.011-1.727 1.97-.254 3.926-.486 5.933-.645 1.135-.089 2.266-.143 3.347-.304-.523.491-.95 1.078-1.548 1.437-.957.573-2.093 1.002-3.066 1.567-1.107.645-2.124 1.354-3.266 1.973-2.267 1.229-4.528 2.573-6.364 4.11-1.899 1.59-3.573 3.349-5.873 4.675-4.509 2.597-9.917 4.198-15.37 5.77-5.468 1.576-10.872 3.269-16.723 4.264-.233.039-.346.342.004.284 5.693-.931 10.974-2.489 16.288-4.006 4.98-1.42 9.883-2.837 14.238-4.976 2.179-1.067 3.945-2.29 5.615-3.727 1.964-1.691 3.904-3.289 6.254-4.729 2.068-1.266 4.128-2.568 6.276-3.768.944-.527 2.005-.924 2.877-1.515.518-.351.971-1.117 1.606-1.543.28-.065.558-.137.828-.226 1.475-.489 2.668-1.32 3.878-2.048 1.684-1.015 3.42-2.007 5.268-2.883 3.33-1.578 6.958-2.859 10.546-4.162 3.045-1.106 6.044-2.23 8.651-3.763 2.595-1.525 5.088-3.228 7.099-5.141.54-.514 1.011-1.069 1.44-1.65.677.926 1.754 1.8 2.143 2.781.503 1.269.655 2.52.798 3.794.122 1.097.174 2.179.238 3.266.051.869-.135 1.838.35 2.693.098.168.487-.016.458-.139z" style="fill:#b07054"/>
		<path d="M114.927 201.248c-.063-.328-.158-.666-.279-1.003-1.242 6.341-6.871 11.715-16.768 12.574-.146.012-.313-.091-.326-.192-.43-2.794 1.783-4.958 3.777-7.035 1.459-1.518 5.063-4.7 2.436-6.809-1.897-1.521-5.229-2.002-7.784-2.432-.606-.103-1.224-.194-1.845-.287 1.59.397 3.199.742 4.772 1.188 1.545.438 3.688.963 3.655 2.315-.042 1.704-1.438 3.287-2.604 4.636-3.157 3.648-6.788 7.176-11.116 10.156-2.539 1.749-5.314 3.347-8.405 4.634-3.665 1.526-7.206 3.165-10.812 4.749-2.641 1.162-5.329 2.324-8.063 3.393-2.296.897-4.885 1.886-7.751 1.802-.184-.006-.351-.114-.329-.246.05-.318.128-.624.234-.929.691-1.997 2.773-3.629 4.728-5.02 2.252-1.604 4.792-3.039 6.855-4.769 2.527-2.117 4.294-4.602 6.155-7.042 1.748-2.292 3.881-4.29 5.991-6.402 1.474-1.475 5.104-4.706 2.568-6.799-1.77-1.46-4.791-1.821-7.122-2.543-2.894-.897-5.745-1.671-8.684-2.194-8.079-.583-16.154-1.047-24.209-1.333 3.134.243 6.267.52 9.396.93 3.949.514 7.901 1.214 11.715 2.293 2.242.635 4.592 1.282 6.762 2.06 1.634.583 3.728 1.486 3.396 2.926-.378 1.633-2.592 2.684-4.348 3.559-4.786 2.386-9.595 4.519-15.232 5.989-6.634 1.73-13.711 2.804-20.932 3.38-7.737.618-15.639.5-23.314 1.326-4.213.454-8.389 1.002-12.627 1.39-3.794.347-7.616.618-11.436.895l-1.749 10.462c3.34-.403 6.602-1.011 9.879-1.535 5.619-.9 11.422-1.357 17.313-1.51 6.187-.162 12.462.135 18.69.192 6.084.057 12.207.142 18.337.959.192.026.288.179.232.29-.869 1.673-3.644 2.37-5.939 2.858-3.423.729-6.869 1.423-10.297 2.143-4.117.865-8.235 1.725-12.35 2.592-3.942.829-7.824 1.732-11.951 2.216-3.779.442-7.658.625-11.517.837-4.192.231-8.352.56-12.533.831-.509.033-1.021.064-1.53.096l-1.41 8.432c9.547-2.274 19.605-3.672 29.786-4.697 5.717-.577 11.503-.98 17.192-1.626 5.606-.636 11.191-1.376 16.982-1.461.271-.004.463.273.222.367-5.517 2.152-11.035 4.319-16.825 6.16-6.021 1.916-12.245 3.325-18.845 4.324-6.817 1.031-13.687 2.007-20.26 3.494-3.162.715-6.562 1.311-9.714 2.183l-1.238 7.404c6.069.394 12.124.601 18.067.234 2.502-.153 4.945-.519 7.463-.615 2.255-.084 4.537-.02 6.829.135 4.591.31 9.233.903 13.798.874 8.17-.053 14.902-2.64 21.746-4.968 3.162-1.075 6.383-2.12 9.836-2.79 2.605-.504 5.18-1.063 7.736-1.649.819-.313 1.635-.629 2.444-.957 3.369-1.361 6.729-2.788 9.872-4.371 3.004-1.51 5.627-3.337 8.174-5.191 5.565-4.049 11.452-7.888 16.822-12.066 2.611-2.034 5.097-4.165 7.262-6.454 2.112-2.232 3.681-4.841 4.986-7.39 1.412-2.75 2.832-5.494 3.43-8.461.44-2.17 1.048-4.219.606-6.502z" style="opacity:.3;fill:#b66651"/>
		<path d="M10.783 237.906c5.132-1.103 10.231-2.258 15.251-3.533-4.287-.293-8.601-.073-12.705.362-2.168.23-4.338.503-6.374.992-2.123.51-4.149 1.149-6.243 1.699-4.517 1.191-9.408 1.332-14.205 1.964-2.424.318-4.818.699-7.161 1.168l-.497 2.977c5.107-.789 10.388-1.299 15.423-2.203 5.574-.999 11.04-2.25 16.511-3.426zm-11.954-15.231c4.523-.325 9.048-.636 13.55-1.017 8.619-.729 16.979-1.754 25.136-3.485 6.153-1.305 12.18-2.812 18.256-4.241-6.98.945-14.099 1.587-21.234 2.138-6.015.464-12.044 1.071-18.137 1.275-4.176.142-8.373.202-12.561.291-4.852.103-9.707.203-14.533.407-1.779.077-3.563.154-5.319.309-.145.013-.523.038-.94.073l-.865 5.183c1.836-.063 3.664-.1 5.424-.171 3.771-.154 7.487-.495 11.223-.762z" style="opacity:.4;fill:#b17b56"/>
		<path d="M112.155 210.915c-2.434 4.17-6.843 7.772-11.412 10.801-.112.074-.346.091-.452-.034-2.336-2.794-1.552-6.094-4.235-8.767.479 2.708 1.231 5.562.374 8.133-.778 2.327-2.644 4.305-4.881 5.991-2.273 1.711-4.862 3.188-7.452 4.664-2.781 1.584-5.502 3.215-8.239 4.832-5.84 3.454-11.787 6.943-18.688 9.436-6.214 2.245-13.569 2.764-19.946 4.778-.213.067-.49-.15-.381-.287 4.811-6.006 13.509-9.752 18.655-15.559-3.498 1.631-6.809 3.434-10.102 5.245-5.245 2.887-10.491 5.834-16.399 8.11-2.754 1.061-5.638 2.005-8.707 2.658-3.447.733-7.057.97-10.659 1.366-8.313.913-16.4 2.35-24.713 3.257-2.643.289-5.47.497-8.219.855l-.841 5.024c6.069.394 12.124.601 18.067.234 2.502-.153 4.945-.519 7.463-.615 2.255-.084 4.537-.02 6.829.135 4.591.31 9.233.903 13.798.874 8.17-.053 14.902-2.64 21.746-4.968 3.162-1.075 6.383-2.12 9.836-2.79 2.605-.504 5.18-1.063 7.736-1.649.819-.313 1.635-.629 2.444-.957 3.369-1.361 6.729-2.788 9.872-4.371 3.004-1.51 5.627-3.337 8.174-5.191 5.565-4.049 11.452-7.888 16.822-12.066 2.611-2.034 5.097-4.165 7.262-6.454 2.112-2.232 3.681-4.841 4.986-7.39 1.412-2.75 2.832-5.494 3.43-8.461.389-1.929.907-3.763.708-5.749-.709 3.036-1.245 6.12-2.876 8.915z" style="opacity:.3;fill:#b66651"/>
		<path d="M3.514 211.177c-.491-.595-1.278-1.119-2.114-1.205-.722-.23-1.619-.238-2.052.083-.526.391-.019.821.518 1.129.786.453 1.617.679 2.585.743.425.028 1.387-.358 1.063-.75zm5.64-1.279c-.372-.332-.945-.186-1.339-.045-.264.093-.716.218-1.079.391-.395-.126-.824-.176-1.194-.072-.286.079-.615.258-.601.508.03.535.779 1.217 1.599 1.305.508.055.862-.147 1.097-.42.257.028.51.04.751-.026.423-.117.784-.445.853-.768.055-.262.198-.618-.087-.873zm6.761 3.089c.069-.091.099-.196-.02-.262-.234-.13-.475-.239-.766-.249-.428-.016-.874.177-.972.465-.11.316.322.62.758.723.453.107.827-.129.969-.388.046-.085.083-.191.031-.289zm-8.36 1.019c-.273-.537-.983-.89-1.745-.713-.803.187-1.251.763-1.353 1.329-.028.158.231.236.409.223.081-.006.165-.026.248-.054.341.326.896.515 1.47.458.87-.086 1.269-.657.971-1.243zm-9.622-.445c-.145-.178-.191-.376-.355-.548-.213-.223-.516-.234-.828-.178-.37.066-.632.338-.854.529-.149.129-.276.276-.4.42l-.027.03c-.017.019-.032.038-.049.056-.094.107-.205.266-.134.405.018.035.044.061.075.083.153.221.549.382.875.474.557.159 1.207.246 1.646-.027.547-.34.429-.785.051-1.244zm-5.961-1.738c-.239-.052-.43-.124-.63-.234-.116-.064-.24-.151-.387-.167-.273-.03-.528.082-.686.206-.196.158-.226.367-.019.56.238.221.633.173.9.084.023-.008.048-.021.073-.033.13.027.263.042.392.057.322.039.827-.37.357-.473zm83.263 1.916c-.302-.365-.785-.687-1.299-.739-.442-.142-.992-.148-1.259.049-.323.241-.013.505.319.694.481.278.992.417 1.587.456.26.018.852-.217.652-.46zm3.462-.784c-.23-.204-.581-.113-.822-.028-.16.056-.439.134-.663.24-.242-.077-.506-.107-.733-.044-.174.049-.377.159-.368.311.019.329.478.748.981.801.313.033.529-.09.675-.257.157.017.313.024.46-.016.261-.073.481-.274.525-.473.033-.158.12-.379-.055-.534zm4.153 1.897c.042-.056.06-.12-.014-.161-.144-.08-.292-.146-.47-.153-.263-.01-.537.11-.598.285-.067.195.198.382.466.445.277.065.508-.081.595-.239.028-.051.051-.118.021-.177zm-5.134.625c-.168-.329-.604-.546-1.072-.438-.493.114-.767.467-.83.815-.017.097.141.144.25.137.049-.004.101-.017.151-.033.21.202.551.315.903.281.536-.051.781-.403.598-.762zm-5.907-.273c-.09-.11-.118-.23-.217-.336-.131-.138-.318-.145-.509-.11-.229.041-.389.208-.525.326-.091.08-.169.169-.246.258-.004.007-.01.012-.015.019-.011.011-.021.022-.03.033-.059.065-.126.163-.082.249.01.021.027.037.046.05.094.136.337.235.537.292.343.098.741.15 1.01-.017.335-.211.262-.484.031-.764zm-3.662-1.067c-.146-.032-.264-.077-.385-.144-.072-.04-.147-.093-.239-.103-.166-.02-.321.05-.419.126-.122.098-.14.228-.014.344.146.134.39.105.554.051.015-.004.028-.011.045-.021.08.018.164.028.242.037.196.023.507-.228.216-.29zM-6.775 249.66c-.301-.365-.784-.687-1.298-.738-.442-.142-.993-.148-1.259.049-.324.241-.012.504.32.694.481.277.992.417 1.586.455.259.018.851-.218.651-.46zm3.462-.784c-.229-.204-.58-.113-.822-.028-.161.058-.438.134-.663.24-.242-.076-.505-.106-.733-.044-.175.049-.378.159-.369.311.018.33.479.747.981.801.314.034.529-.091.675-.256.158.016.313.024.46-.017.26-.072.481-.273.524-.472.034-.16.122-.379-.053-.535zm4.151 1.896c.043-.055.061-.119-.012-.16-.143-.079-.291-.147-.471-.153-.263-.01-.536.108-.597.286-.066.193.199.38.467.443.276.067.507-.079.594-.238.029-.052.051-.118.019-.178zm-5.132.627c-.167-.331-.604-.547-1.071-.439-.493.114-.768.468-.831.815-.018.097.141.145.251.137.048-.004.101-.017.15-.034.209.202.551.317.903.282.536-.051.782-.401.598-.761zm-5.907-.273c-.09-.109-.117-.23-.218-.335-.131-.138-.317-.146-.508-.11-.228.04-.389.206-.525.323-.092.081-.168.17-.246.259-.005.006-.01.013-.015.019-.011.01-.021.022-.031.035-.058.065-.126.162-.083.249.011.022.028.037.048.051.093.136.336.234.536.291.342.099.739.15 1.011-.017.336-.211.263-.484.031-.765zm-3.661-1.069c-.144-.03-.263-.075-.386-.142-.07-.04-.146-.094-.238-.104-.166-.017-.323.05-.42.127-.122.097-.139.226-.013.343.146.135.389.107.553.053.016-.004.029-.013.044-.021.081.018.164.026.241.037.199.023.509-.229.219-.293z" style="opacity:.4;fill:#b17b56"/>
		<path d="M48.94 261.041c4.733 1.055 9.785 1.552 14.807 1.788 5.387.002 10.791-.387 16.145-.614 2.364-.099 4.728-.158 7.097-.169 2.325-.247 4.648-.491 6.981-.662 3.083-.225 6.216-.259 9.089-1.053 2.865-.793 5.635-1.724 8.428-2.605 2.758-.873 5.526-1.739 8.341-2.544-.503-1.479-.98-2.962-1.528-4.436-.236-.638-.229-1.288-.176-1.94-.242-.441-.483-.884-.678-1.336-.383-.892-.723-1.791-1.128-2.682-.197-.43-.411-.854-.658-1.268-.796-.497-1.684-.949-2.511-1.387-2.105-1.113-4.027-2.362-5.946-3.588-.688-.44-1.373-.881-2.056-1.323-2.102-.971-4.126-2-6.065-3.085-1.321-.737-2.593-1.501-3.876-2.26-3.342-.788-6.698-1.556-10.038-2.349-2.237.174-4.402.54-6.432 1.232-2.836.963-5.874 1.736-8.86 2.519-2.484.653-5.122.761-7.671 1.267-2.649.527-4.271 1.549-5.795 2.907-1.41 1.255-2.971 2.413-4.6 3.568-1.58 1.122-3.182 2.255-4.537 3.483-.206.287-.414.572-.631.855-.983 1.274-1.999 2.537-3.045 3.794-.228.409-.437.822-.629 1.236-1.174 2.53-1.78 5.135-1.97 7.751 2.184 1.317 5.037 2.253 7.942 2.901z" style="fill:#b66651"/>
		<path d="M44.24 249.53c.05-.096.294-.13.376-.029.59.716 1.1 1.457 1.596 2.201-.207-.467-.396-.933-.563-1.393-.382-1.062-.295-1.965.652-2.915 1.011-1.011 2.346-1.884 3.3-2.916.647-.702 1.256-1.475 2.187-2.064.837-.528 1.879-.934 2.909-1.311 1.221-.447 2.744-.878 3.688-1.537.93-.652 1.106-1.462 1.532-2.25.625-1.151 1.724-1.985 3.684-2.392.994-.206 2.026-.324 3.071-.397 1.124-.079 2.338-.064 3.434-.233 2.7-.416 4.866-1.641 7.327-2.382 1.375-.414 2.565-.865 3.68-1.507.269-.156.54-.312.815-.466-1.093.201-2.159.467-3.191.819-2.836.963-5.874 1.736-8.86 2.519-2.484.653-5.122.761-7.671 1.267-2.649.527-4.271 1.549-5.795 2.907-1.41 1.255-2.971 2.413-4.6 3.568-1.58 1.122-3.182 2.255-4.537 3.483-.206.287-.414.572-.631.855-.983 1.274-1.999 2.537-3.045 3.794-.228.409-.437.822-.629 1.236-1.174 2.53-1.78 5.135-1.97 7.751.428.258.887.496 1.361.725-.502-3.127.369-6.379 1.88-9.333zm24.679 8.368c.016-1.04-.052-2.096-.456-3.112-.319-.806-1.102-1.627-1.015-2.475.182-1.768 2.629-2.527 4.912-3.318 1.058-.367 2.046-.798 3.006-1.256-1.164.395-2.279.831-3.396 1.281-1.456.588-2.866 1.19-4.47 1.622-.996.267-1.716.645-1.626 1.355.058.457.256.893.465 1.333.975 2.052.719 4.201.43 6.302-.134.977-.314 1.952-.193 2.932.008.077.017.154.024.233.609-.013 1.217-.031 1.826-.051.137-1.617.468-3.228.493-4.846zm19.429-13.937c1.93-.679 3.817-1.432 4.963-2.623.878-.912 1.247-1.944 1.769-2.94-.852.641-1.647 1.307-2.438 1.975-1.418 1.203-2.92 2.368-4.294 3.588z" style="opacity:.6;fill:#e49d6e"/>
		<path d="M64.791 258.021c-.096-.956-.272-1.868-.583-2.808-.312-.939-.901-1.828-1.047-2.788-.069-.452.023-.999.235-1.433.174-.354.397-.666.29-1.039-.187-.655-1.123-1.208-1.865-1.659-1.005-.61-2.036-1.206-3.03-1.823-1.065-.662-2.285-1.231-3.485-1.802-1.268-.602-2.466-1.201-3.87-1.694-.175-.062-.47.162-.305.225 2.498.953 4.894 2.171 7.003 3.413.967.568 1.854 1.185 2.833 1.746 1.14.654 2.59 1.425 2.058 2.46-.857 1.669.296 3.123.886 4.743.312.853.478 1.692.596 2.563.124.908-.163 1.888.264 2.771.028.056.146-.014.142-.051-.163-.945-.026-1.88-.122-2.824zm35.407-1.288c-1.283-.799-2.521-1.624-3.701-2.48-.623-.451-1.218-.915-1.803-1.384-.546-.438-.963-.918-1.5-1.354-.862-.702-2.042-1.247-3.322-1.649-1.389-.437-2.851-.771-3.937-1.475-.029-.02-.067-.021-.107-.014-.26-1.533-1.182-2.964-1.811-4.458.99-.518 1.757-1.16 2.528-1.798 1.159-.96 2.351-1.905 3.489-2.873 2.283-1.94 4.6-3.965 5.796-6.249.095-.185-.288-.102-.354.017-1.276 2.292-3.642 4.316-5.96 6.269-1.074.904-2.196 1.786-3.294 2.679-.948.772-1.87 1.566-3.256 2.08-1.674.62-3.8.416-5.656.635-1.825.214-3.499.811-5.232 1.196-1.595.355-3.185.701-4.641 1.24-1.372.508-2.123 1.453-3.567 1.891-.118.035-.149.183.026.13 1.398-.416 2.301-1.225 3.604-1.728 1.691-.654 3.679-.977 5.529-1.428 2.068-.503 3.936-1.042 6.217-1.067 1.487-.016 3.048-.214 4.266-.751.008.041.041.058.088.06.651 1.545 1.603 3.034 1.771 4.638.177 1.697.911 3.333 1.23 5.018.022.117.304-.026.295-.107-.169-1.686-.812-3.336-1.01-5.02.954.577 2.171.921 3.372 1.292 1.435.443 2.708 1.08 3.666 1.863.471.385.838.816 1.315 1.205.524.427 1.074.844 1.634 1.256 1.244.917 2.579 1.789 3.994 2.612.157.087.485-.15.331-.246zm15.472-13.126c-.978.649-1.337 1.615-1.845 2.413-.771 1.208-1.641 2.391-2.244 3.635-1.143 2.373-2.402 4.784-2.952 7.236-.037.16.308.019.34-.072.78-2.269 1.723-4.55 2.845-6.766.554-1.089 1.179-2.155 1.874-3.215.354-.54.668-1.089 1.031-1.627.347-.516.55-1.064 1.175-1.496.192-.132-.032-.235-.224-.108zm-42.115-6.017c-1.273-.337-2.349-.739-3.461-1.23-.862-.38-1.919-.526-2.92-.714-2.029-.378-3.806-.96-6.001-.626-.153.024-.324.274-.102.245 2.228-.298 4.047.34 6.084.728 1.133.215 2.165.438 3.118.884.906.423 2.03.682 3.113.893.128.024.319-.141.169-.18zm12.029-3.132c-.804.078-1.611.132-2.405.238-.867.115-1.656.448-2.48.645-.883.212-1.833.35-2.741.517-.802.146-1.483.436-2.276.579-.143.025-.269.226-.043.191.676-.108 1.236-.362 1.911-.468.918-.147 1.824-.32 2.736-.479.752-.13 1.466-.358 2.167-.564.942-.276 2.055-.248 3.043-.45.112-.023.295-.229.088-.209zm-31.399 24.115c-.91-.711-1.908-1.369-2.8-2.092-.917-.747-1.959-1.527-2.745-2.323-.755-.765-1.27-1.608-1.708-2.454-.529-1.022-1.055-2.037-1.646-3.048-.064-.11-.379.075-.326.174.999 1.859 1.659 3.841 3.229 5.567.387.425.898.753 1.367 1.145.47.39.889.799 1.356 1.191.879.737 1.756 1.473 2.973 2.029.134.058.394-.115.3-.189zm23.375-5.067c-1.2-.336-2.476-.669-3.727-.926-.138-.028-.343.153-.18.191.458.107.897.342 1.35.429.542.104 1.086.37 1.62.435.26.031 1.498.341 1.479.469-.013.085.139.085.22.036.507-.314-.358-.521-.762-.634z" style="opacity:.4;fill:#b57e58"/>
		<path d="M105.632 241.564c-.294.8-1.318 1.554-1.935 2.283-.599.708-1.139 1.439-1.884 2.098-.775.687-1.466 1.504-2.472 2.077-.888.506-1.817.985-2.563 1.571-.123.099-.014.238.17.127.919-.559 1.978-1.047 2.865-1.622.948-.615 1.645-1.394 2.411-2.091.86-.783 1.463-1.665 2.156-2.502.543-.661 1.323-1.274 1.558-2.007.046-.139-.275-.019-.306.066zm.021 11.501c-.425.484-.925.925-1.591 1.302-.569.319-1.298.526-1.817.873-.121.08-.073.259.142.167 1.506-.647 2.691-1.296 3.531-2.302.126-.15-.163-.156-.265-.04z" style="opacity:.4;fill:#b57e58"/>
		<path d="M118.298 250.746c-.236-.638-.229-1.288-.176-1.94-.242-.441-.483-.884-.678-1.336-.383-.892-.723-1.791-1.128-2.682-.197-.43-.411-.854-.658-1.268-.796-.497-1.684-.949-2.511-1.387-2.105-1.113-4.027-2.362-5.946-3.588-.688-.44-1.373-.881-2.056-1.323-2.102-.971-4.126-2-6.065-3.085-1.321-.737-2.593-1.501-3.876-2.26-3.342-.788-6.698-1.556-10.038-2.349-.254.02-.506.042-.758.068.163.304.333.605.482.906.32.642.802 1.471.455 2.145-.674 1.316-4.082 1.547-5.928 1.896-3.106.585-5.559 2.074-9.004 1.946-2.223-.082-4.542-.381-6.655-.898 2.121.886 4.445 1.673 6.886 2.089 3.672.627 6.758-.679 10.164-1.266.126-.02.267.04.261.119-.148 1.858-1.373 3.514-3.725 4.748-2.413 1.267-5.336 2.093-8.084 3.056-1.52.531-2.923 1.19-4.477 1.682-.986.312-2.609.785-3.744.454-.684-.2-1.258-.504-1.826-.803-.767-.407-1.572-.73-2.438-1.059-1.386-.525-2.752-1.064-4.071-1.646 1.364 1.14 2.597 2.335 4.039 3.445 1.137.876 2.619 1.946 2.399 3.134-.474 2.552-4.306 4.461-6.586 6.473-.064.056-.179.08-.282.045-.809-.28-1.327-.722-1.743-1.216-.521-.616-1.111-1.157-1.816-1.706-.801-.623-1.618-1.246-2.264-1.923.879 2.442 1.332 4.957 3.229 7.216.082.098-.104.25-.282.168-2.395-1.105-5.996-1.405-8.129-2.702-.127.745-.219 1.494-.275 2.242 2.185 1.317 5.038 2.253 7.943 2.901 4.733 1.055 9.785 1.552 14.807 1.788.325.001.647-.005.973-.007.308-2.159-.082-4.333-.41-6.491-.284-1.849-1.073-4 1.021-5.579 1.811-1.364 4.484-2.079 6.939-2.936 3.284-1.147 6.569-2.295 10.318-2.798.135-.019.253.037.26.118.165 1.732 1.039 3.508.636 5.245-.438 1.89-2.681 3.43-2.89 5.331-.105.944-.146 1.887-.398 2.823-.269.999-.678 1.98-1.101 2.959-.11.256-.229.514-.344.772.379-.018.76-.036 1.14-.052 2.364-.099 4.728-.158 7.097-.169 2.325-.247 4.648-.491 6.981-.662 3.083-.225 6.216-.259 9.089-1.053 2.865-.793 5.635-1.724 8.428-2.605 2.758-.873 5.526-1.739 8.341-2.544-.501-1.48-.978-2.963-1.526-4.436z" style="opacity:.4;fill:#b17b56"/>
		<path d="M63.787 255.45c-.285-1.21-.239-2.428-.486-3.636-.245-1.2-.828-2.345-1.596-3.456-.146 1.371-.246 2.745-.55 4.109-.328 1.474-1.109 2.881-1.577 4.336-.602 1.878-.889 3.775-.962 5.677 1.706.153 3.42.268 5.131.348.325.001.647-.005.973-.007.215-1.496.09-2.999-.114-4.5-.289-.953-.592-1.909-.819-2.871zm27.327-23.353c.366 1.808-.555 3.665-1.721 5.316-1.208 1.706-2.758 3.563-5.016 4.864-3.154 1.82-7.734 1.871-11.417 3.147 1.321.005 2.644.01 3.964-.037 1.603-.057 3.619-.094 5.044-.601 1.528-.543 2.698-1.351 3.958-2.086 1.307-.763 2.78-1.408 4.163-2.117 2.848-1.455 5.011-3.149 6.95-5.057.547-.539 1.093-1.079 1.655-1.611-1.181-.669-2.334-1.355-3.489-2.04-1.583-.373-3.168-.742-4.754-1.11.335.4.563.842.663 1.332zm1.199 13.162c-1.258.579-2.619 1.072-3.879 1.649 3.283.013 6.498-.757 8.563-2.339 1.306-1.002 2.229-2.172 3.003-3.348.441-.67.607-1.379.875-2.07-1.831 1.346-3.411 2.809-5.279 4.138-.996.71-2.053 1.404-3.283 1.97zm4.508 3.494c1.69-.215 2.979-1.35 3.846-2.141 1.039-.946 1.921-1.945 2.796-2.947 1.115-1.281 2.233-2.531 3.112-3.88.252-.387.499-.776.745-1.166-.041-.024-.08-.05-.119-.076-.635-.406-1.267-.814-1.898-1.223-.596 4.222-5.5 7.655-8.482 11.433zm8.038-1.346c-2.161 1.657-5.031 2.973-6.79 4.812 4.472-.114 5.404-2.658 6.79-4.812zm.52 4.607c-1.072.953-2.212 1.883-3.131 2.893 1.87-.827 3.47-1.858 4.923-2.938 1.562-1.162 3.159-2.355 4.174-3.728 1.287-1.737 1.989-3.625 3.167-5.384-.448-.244-.902-.48-1.341-.713-1.198 2.044-2.655 4.031-4.24 5.976-1.085 1.333-2.164 2.662-3.552 3.894zm8.984 2.864c-.168-1.693-.579-3.372-1.113-5.038-1.834 2.804-3.076 5.722-4.18 8.655.805-.257 1.609-.517 2.416-.77.981-.311 1.966-.62 2.953-.927.028-.653-.015-1.305-.076-1.92zm-14.945 6.074c-.444-2.038-2.938-3.701-5.344-5.054-2.245-1.262-4.709-2.369-6.988-3.607-.021 1.166.603 2.331.741 3.494.155 1.324.179 2.656.427 3.976.131.693.255 1.4.406 2.108 1.768-.183 3.536-.355 5.309-.485 1.828-.133 3.671-.2 5.468-.396-.007-.012-.015-.022-.019-.036zm-26.341-2.945c-.258-.195-.635-.345-1.004-.324-.328-.042-.717.012-.882.162-.199.184.051.314.306.399.373.121.751.155 1.174.117.184-.016.572-.224.406-.354zm2.347-.846c-.184-.103-.423-.011-.583.068-.106.052-.294.128-.439.218-.181-.023-.369-.016-.522.047-.117.049-.246.14-.223.232.052.203.426.415.787.396.225-.012.363-.111.445-.23.113-.005.223-.017.322-.058.175-.072.308-.219.314-.348.005-.101.04-.246-.101-.325zm3.15.746c.022-.038.028-.08-.028-.098-.109-.036-.221-.061-.348-.047-.188.022-.366.124-.389.239-.024.128.186.216.382.227.202.012.348-.102.391-.21.013-.034.02-.076-.008-.111zm-3.545.922c-.156-.186-.49-.277-.809-.16-.332.121-.485.371-.487.592-.001.063.115.076.191.059.035-.007.07-.02.104-.035.171.102.425.14.671.081.371-.089.502-.332.33-.537zm-4.197.444c-.077-.058-.109-.13-.192-.186-.108-.072-.241-.056-.372-.015-.154.048-.249.168-.331.256-.056.059-.099.123-.143.185-.004.005-.007.01-.01.014-.006.008-.011.017-.016.024-.034.047-.071.115-.031.164.01.012.025.021.04.026.083.074.266.11.412.124.253.026.541.018.711-.115.212-.164.129-.326-.068-.477zm-2.706-.283c-.107-.004-.195-.02-.29-.05-.054-.017-.114-.042-.18-.039-.12.006-.222.064-.282.123-.073.073-.07.154.032.214.12.069.287.026.395-.025.012-.004.021-.011.03-.018.059.002.118 0 .174-.003.142-.005.332-.193.121-.202zm1.626-18.311c-.257-.196-.635-.346-1.003-.325-.329-.042-.718.012-.881.162-.201.184.051.314.306.398.373.123.75.157 1.172.12.185-.018.574-.226.406-.355zm2.348-.847c-.186-.104-.423-.011-.583.068-.107.052-.294.129-.438.218-.181-.023-.369-.016-.523.048-.116.049-.246.139-.223.232.053.203.425.415.787.395.225-.012.362-.11.445-.229.113-.007.222-.018.322-.059.175-.072.307-.219.313-.347.005-.103.041-.248-.1-.326zm3.15.747c.022-.04.027-.081-.027-.099-.11-.035-.224-.061-.349-.046-.188.021-.366.122-.388.239-.025.127.184.216.38.227.204.013.349-.102.391-.21.014-.035.022-.078-.007-.111zm-3.544.922c-.157-.188-.491-.278-.808-.162-.334.122-.484.371-.49.593 0 .063.117.075.194.059.035-.007.07-.021.104-.035.171.102.425.137.669.081.37-.089.501-.332.331-.536zm-4.198.443c-.076-.059-.109-.132-.193-.188-.107-.07-.241-.056-.371-.015-.156.049-.248.169-.331.256-.055.06-.099.124-.142.187-.005.005-.009.008-.01.013-.006.008-.012.017-.018.025-.033.045-.069.114-.029.163.01.012.025.02.04.027.083.074.265.109.413.124.253.025.541.017.711-.115.21-.165.126-.327-.07-.477zm-2.706-.283c-.107-.004-.195-.021-.288-.049-.057-.018-.115-.042-.182-.04-.119.007-.222.065-.28.122-.075.073-.072.156.03.216.12.068.287.025.396-.026.01-.005.021-.011.03-.017.06.002.118-.001.174-.004.141-.005.331-.193.12-.202zm40.174 13.444c-.255-.196-.635-.345-1.002-.324-.329-.042-.717.012-.882.162-.2.183.052.314.308.398.371.123.748.156 1.172.118.183-.017.572-.224.404-.354zm2.347-.847c-.184-.103-.423-.01-.582.068-.107.051-.293.128-.439.218-.18-.023-.37-.016-.523.048-.116.048-.247.139-.223.232.052.202.425.415.787.395.225-.012.361-.111.444-.23.113-.006.224-.018.322-.058.176-.072.307-.22.315-.347.005-.102.042-.246-.101-.326z" style="opacity:.4;fill:#b17b56"/>
		<path d="M110.475 255.005c.022-.039.027-.081-.027-.098-.111-.036-.224-.061-.351-.047-.186.021-.366.124-.386.24-.025.128.184.215.381.228.202.011.348-.102.389-.211.015-.035.022-.077-.006-.112zm-3.546.922c-.156-.187-.489-.277-.807-.161-.333.121-.485.371-.489.592 0 .063.117.076.193.06.035-.008.069-.02.104-.037.172.102.426.139.67.081.37-.087.501-.33.329-.535zm-4.197.444c-.076-.058-.11-.131-.193-.186-.107-.071-.241-.057-.371-.015-.156.048-.248.168-.332.256-.055.058-.098.123-.143.186-.002.004-.006.008-.009.013-.005.008-.011.016-.017.024-.033.045-.071.115-.03.164.01.012.025.02.039.026.082.074.265.11.413.125.252.025.541.017.71-.115.214-.166.13-.327-.067-.478zm-2.707-.283c-.104-.004-.194-.02-.288-.049-.055-.017-.115-.043-.181-.039-.119.007-.223.065-.28.123-.074.073-.071.155.031.214.12.069.287.025.396-.024.012-.005.021-.012.029-.018.059.001.119-.001.174-.003.142-.006.33-.196.119-.204zm-4.67-2.076c-.256-.196-.633-.346-1.001-.325-.329-.042-.719.013-.883.162-.2.183.051.314.306.398.374.123.75.156 1.172.118.187-.016.576-.224.406-.353zm2.349-.847c-.186-.103-.423-.01-.583.068-.108.052-.294.129-.439.218-.179-.023-.37-.015-.522.048-.118.049-.248.139-.224.232.052.203.426.414.787.396.227-.012.363-.112.445-.23.113-.006.224-.017.322-.059.176-.071.308-.219.315-.347.006-.101.042-.246-.101-.326zm3.15.747c.025-.039.029-.08-.026-.1-.111-.034-.222-.06-.351-.045-.187.02-.365.123-.387.24-.025.127.185.215.38.227.203.013.351-.102.393-.21.013-.035.02-.079-.009-.112zm-3.543.921c-.159-.188-.492-.277-.808-.16-.335.12-.486.369-.489.592-.002.063.116.075.193.059.035-.007.068-.021.103-.036.171.102.424.139.668.081.372-.088.502-.331.333-.536zm-4.198.444c-.076-.059-.11-.13-.194-.186-.107-.072-.24-.056-.37-.015-.157.048-.249.168-.332.256-.056.059-.099.122-.143.186-.003.004-.007.009-.009.014-.007.007-.013.016-.018.024-.033.046-.069.114-.028.163.011.012.025.02.039.026.082.075.265.11.412.125.254.025.541.017.711-.115.212-.165.128-.328-.068-.478zm-2.708-.283c-.106-.005-.195-.02-.289-.049-.054-.017-.114-.041-.179-.038-.12.006-.222.064-.282.122-.073.073-.071.155.032.215.12.069.288.025.397-.025.009-.005.02-.012.028-.019.059.002.119-.001.174-.002.143-.006.331-.195.119-.204zm-.479-18.162c-.285-.218-.706-.385-1.115-.36-.368-.047-.801.013-.983.18-.223.204.057.35.341.443.414.136.834.173 1.305.131.207-.019.639-.25.452-.394zm2.614-.943c-.206-.114-.47-.011-.648.076-.119.058-.327.143-.49.243-.2-.026-.411-.016-.581.054-.13.053-.276.154-.248.258.057.225.472.462.876.44.249-.013.404-.124.494-.256.126-.007.25-.019.36-.064.194-.081.341-.246.349-.387.007-.115.046-.276-.112-.364zm3.508.832c.027-.044.033-.089-.029-.11-.125-.039-.249-.067-.39-.052-.208.024-.408.138-.432.268-.027.142.207.241.424.254.227.013.389-.115.435-.234.017-.041.025-.089-.008-.126zm-3.946 1.025c-.174-.207-.546-.308-.9-.178-.371.135-.541.413-.543.66-.001.069.13.084.215.066.037-.009.075-.023.114-.04.191.114.474.155.746.089.412-.098.559-.368.368-.597zm-4.674.495c-.086-.065-.122-.146-.216-.207-.119-.08-.267-.063-.412-.018-.174.055-.278.189-.37.286-.061.066-.11.136-.16.206-.002.005-.005.01-.01.015-.007.009-.013.018-.018.026-.038.052-.079.128-.034.183.012.013.028.023.044.029.091.083.296.124.46.139.28.028.601.018.791-.128.237-.183.143-.363-.075-.531zm-3.014-.315c-.119-.005-.217-.021-.322-.055-.06-.019-.128-.047-.2-.043-.132.007-.248.072-.313.137-.083.08-.079.171.035.238.132.077.319.028.44-.027.01-.005.021-.013.032-.019.066.002.133-.002.194-.004.158-.007.368-.217.134-.227z" style="opacity:.4;fill:#b17b56"/>
		<path d="M396.521 243.683c0 9.167-23.183 16.599-51.778 16.599-28.597 0-51.778-7.432-51.778-16.599 0-9.166 23.181-16.598 51.778-16.598 28.595 0 51.778 7.432 51.778 16.598z" style="opacity:.4;fill:#b07054"/>
		<path d="M309.116 252.84c5.311 1.979 10.98 2.911 16.619 3.355 6.044.005 12.109-.727 18.118-1.153 2.656-.184 5.307-.296 7.964-.317 2.609-.463 5.217-.921 7.835-1.24 3.462-.422 6.976-.487 10.202-1.976 3.216-1.486 6.324-3.233 9.459-4.887 3.096-1.636 6.202-3.261 9.36-4.77-.564-2.775-1.1-5.555-1.714-8.319-.267-1.197-.258-2.415-.197-3.637-.272-.831-.545-1.662-.761-2.508-.43-1.673-.81-3.36-1.267-5.03-.221-.807-.462-1.602-.739-2.376-.892-.933-1.89-1.782-2.816-2.602-2.364-2.087-4.521-4.429-6.674-6.73-.772-.824-1.54-1.653-2.308-2.482-2.359-1.82-4.631-3.749-6.809-5.783-1.48-1.381-2.91-2.816-4.349-4.24-3.751-1.478-7.519-2.92-11.265-4.405-2.513.326-4.941 1.015-7.22 2.309-3.183 1.81-6.593 3.256-9.943 4.725-2.79 1.224-5.75 1.428-8.61 2.378-2.974.986-4.792 2.903-6.504 5.449-1.582 2.355-3.332 4.525-5.163 6.692-1.772 2.105-3.57 4.23-5.091 6.532-.23.537-.464 1.072-.71 1.604-1.102 2.388-2.243 4.759-3.417 7.116-.254.768-.49 1.541-.705 2.317-1.318 4.747-1.997 9.631-2.211 14.541 2.452 2.467 5.654 4.223 8.916 5.437z" style="fill:#b66651"/>
		<path d="M303.841 231.251c.055-.178.328-.244.42-.055.665 1.346 1.235 2.735 1.791 4.131-.231-.876-.442-1.75-.63-2.611-.43-1.991-.331-3.686.732-5.466 1.132-1.896 2.629-3.533 3.702-5.469.727-1.317 1.409-2.766 2.455-3.871.937-.991 2.108-1.75 3.263-2.456 1.373-.84 3.082-1.648 4.14-2.885 1.044-1.223 1.242-2.74 1.72-4.219.703-2.16 1.934-3.724 4.134-4.486 1.116-.388 2.274-.606 3.445-.744 1.261-.15 2.624-.121 3.856-.437 3.029-.779 5.459-3.079 8.22-4.468 1.544-.775 2.882-1.625 4.132-2.828.301-.29.605-.584.914-.872-1.227.376-2.424.877-3.582 1.534-3.183 1.81-6.593 3.256-9.943 4.725-2.79 1.224-5.75 1.428-8.61 2.378-2.974.986-4.792 2.903-6.504 5.449-1.582 2.355-3.332 4.525-5.163 6.692-1.772 2.105-3.57 4.23-5.091 6.532-.23.537-.464 1.072-.71 1.604-1.102 2.388-2.243 4.759-3.417 7.116-.254.768-.49 1.541-.705 2.317-1.318 4.747-1.997 9.631-2.211 14.541.48.481.995.929 1.527 1.357-.558-5.867.419-11.967 2.115-17.509zm27.699 15.695c.017-1.949-.06-3.93-.511-5.835-.361-1.513-1.239-3.052-1.14-4.641.204-3.316 2.949-4.739 5.513-6.224 1.186-.688 2.297-1.496 3.375-2.357-1.309.742-2.56 1.557-3.813 2.402-1.633 1.105-3.215 2.233-5.016 3.042-1.119.501-1.927 1.211-1.828 2.541.067.858.29 1.677.524 2.5 1.094 3.85.806 7.879.483 11.82-.151 1.831-.354 3.66-.219 5.499.011.142.02.289.028.436.684-.026 1.367-.059 2.051-.096.153-3.03.523-6.05.553-9.087zm21.805-26.137c2.166-1.273 4.284-2.685 5.569-4.917.985-1.712 1.397-3.646 1.984-5.517-.954 1.202-1.848 2.452-2.734 3.707-1.593 2.252-3.277 4.439-4.819 6.727z" style="opacity:.6;fill:#e49d6e"/>
		<path d="M326.906 247.176c-.107-1.792-.306-3.503-.654-5.264-.351-1.761-1.011-3.428-1.174-5.23-.078-.848.026-1.872.262-2.689.196-.663.445-1.246.326-1.946-.208-1.227-1.258-2.265-2.091-3.11-1.128-1.145-2.287-2.264-3.402-3.42-1.195-1.241-2.564-2.311-3.91-3.379-1.425-1.126-2.768-2.252-4.343-3.177-.197-.115-.529.304-.342.422 2.802 1.788 5.49 4.07 7.858 6.401 1.083 1.066 2.083 2.222 3.178 3.273 1.278 1.228 2.908 2.671 2.31 4.615-.963 3.13.333 5.857.994 8.893.35 1.602.536 3.175.67 4.806.138 1.704-.184 3.543.297 5.199.029.106.163-.026.156-.096-.182-1.772-.029-3.525-.135-5.298zm39.738-2.413c-1.442-1.5-2.831-3.046-4.154-4.651-.699-.845-1.365-1.718-2.022-2.597-.612-.82-1.083-1.72-1.684-2.538-.968-1.315-2.294-2.339-3.729-3.092-1.559-.819-3.201-1.445-4.42-2.768-.032-.035-.074-.038-.121-.024-.289-2.878-1.325-5.563-2.03-8.361 1.108-.973 1.971-2.176 2.836-3.374 1.301-1.799 2.638-3.571 3.917-5.387 2.561-3.64 5.163-7.438 6.504-11.72.106-.346-.324-.19-.399.034-1.433 4.298-4.084 8.093-6.688 11.755-1.206 1.694-2.464 3.347-3.696 5.024-1.064 1.449-2.1 2.937-3.654 3.9-1.879 1.163-4.265.78-6.349 1.19-2.049.403-3.926 1.52-5.871 2.244-1.79.666-3.574 1.313-5.208 2.324-1.541.954-2.383 2.725-4.004 3.548-.133.065-.168.342.029.243 1.571-.78 2.585-2.296 4.043-3.24 1.901-1.227 4.132-1.832 6.207-2.677 2.321-.944 4.418-1.955 6.978-2.002 1.67-.029 3.424-.4 4.791-1.407.005.076.045.107.097.11.729 2.899 1.8 5.69 1.989 8.698.2 3.183 1.022 6.252 1.382 9.412.024.22.339-.052.33-.202-.189-3.161-.913-6.254-1.134-9.414 1.07 1.083 2.435 1.73 3.784 2.423 1.611.831 3.04 2.024 4.115 3.493.529.719.94 1.531 1.475 2.259.59.802 1.208 1.583 1.835 2.356 1.396 1.72 2.895 3.354 4.481 4.897.172.166.542-.278.37-.456zm17.364-24.617c-1.098 1.214-1.499 3.028-2.071 4.524-.866 2.267-1.844 4.482-2.517 6.817-1.285 4.45-2.698 8.969-3.315 13.572-.041.297.347.035.381-.137.878-4.254 1.935-8.532 3.195-12.688.619-2.045 1.321-4.042 2.102-6.03.396-1.012.752-2.041 1.159-3.05.388-.967.618-1.998 1.32-2.807.213-.245-.038-.439-.254-.201zm-47.267-11.286c-1.43-.632-2.636-1.387-3.885-2.307-.966-.713-2.153-.988-3.279-1.337-2.277-.711-4.27-1.801-6.735-1.176-.171.044-.362.514-.113.458 2.5-.558 4.541.639 6.828 1.366 1.271.404 2.431.82 3.5 1.655 1.018.795 2.279 1.279 3.493 1.677.144.048.359-.261.191-.336zm13.5-5.873c-.9.147-1.81.249-2.699.445-.972.217-1.859.841-2.785 1.212-.989.395-2.058.656-3.074.968-.901.276-1.665.817-2.556 1.087-.161.049-.303.426-.049.358.758-.203 1.389-.678 2.146-.88 1.029-.275 2.046-.602 3.071-.895.844-.244 1.645-.673 2.431-1.06 1.058-.516 2.307-.466 3.417-.844.127-.043.33-.429.098-.391zm-35.24 45.225c-1.021-1.332-2.142-2.567-3.141-3.924-1.031-1.398-2.201-2.864-3.083-4.354-.847-1.436-1.425-3.018-1.917-4.604-.592-1.917-1.185-3.819-1.846-5.716-.073-.205-.428.14-.369.325 1.122 3.487 1.864 7.205 3.626 10.443.434.797 1.008 1.412 1.532 2.145.527.732.997 1.499 1.521 2.233.988 1.382 1.973 2.762 3.338 3.805.153.113.446-.214.339-.353zm26.236-9.503c-1.346-.629-2.781-1.255-4.184-1.736-.154-.052-.386.288-.203.359.514.201 1.007.642 1.517.804.607.194 1.219.692 1.817.814.292.06 1.683.642 1.659.88-.015.16.156.162.246.068.571-.59-.399-.977-.852-1.189z" style="opacity:.4;fill:#b57e58"/>
		<path d="M372.742 216.313c-.33 1.502-1.478 2.915-2.171 4.283-.672 1.325-1.277 2.7-2.114 3.933-.87 1.288-1.645 2.822-2.774 3.896-.996.948-2.039 1.847-2.875 2.948-.14.183-.015.444.189.236 1.033-1.048 2.222-1.964 3.217-3.04 1.064-1.153 1.847-2.614 2.706-3.919.965-1.47 1.642-3.124 2.418-4.695.611-1.24 1.486-2.39 1.75-3.764.048-.262-.312-.037-.346.122zm.024 21.569c-.477.909-1.036 1.734-1.788 2.442-.636.602-1.454.987-2.04 1.637-.132.149-.081.486.16.314 1.691-1.214 3.022-2.43 3.965-4.316.141-.282-.182-.294-.297-.077z" style="opacity:.4;fill:#b57e58"/>
		<path d="M386.958 233.533c-.267-1.197-.258-2.415-.197-3.637-.272-.831-.545-1.662-.761-2.508-.43-1.673-.81-3.36-1.267-5.03-.221-.807-.462-1.602-.739-2.376-.892-.933-1.89-1.782-2.816-2.602-2.364-2.087-4.521-4.429-6.674-6.73-.772-.824-1.54-1.653-2.308-2.482-2.359-1.82-4.631-3.749-6.809-5.783-1.48-1.381-2.91-2.816-4.349-4.24-3.751-1.478-7.519-2.92-11.265-4.405-.285.038-.568.08-.851.128.182.569.373 1.135.541 1.698.357 1.203.898 2.76.511 4.025-.757 2.467-4.583 2.9-6.655 3.552-3.487 1.1-6.238 3.892-10.105 3.653-2.495-.155-5.098-.717-7.469-1.685 2.38 1.658 4.989 3.137 7.728 3.916 4.121 1.175 7.583-1.272 11.409-2.373.139-.04.299.073.29.222-.167 3.484-1.539 6.591-4.178 8.904-2.708 2.377-5.989 3.927-9.075 5.732-1.703.997-3.28 2.232-5.023 3.153-1.107.586-2.928 1.473-4.2.851-.769-.374-1.414-.943-2.05-1.504-.86-.764-1.765-1.372-2.735-1.987-1.555-.982-3.09-1.998-4.568-3.088 1.531 2.139 2.915 4.379 4.533 6.462 1.275 1.643 2.94 3.648 2.692 5.877-.531 4.787-4.833 8.367-7.393 12.141-.07.104-.2.148-.314.081-.909-.522-1.489-1.352-1.957-2.277-.585-1.157-1.246-2.17-2.037-3.2-.899-1.168-1.816-2.337-2.543-3.608.986 4.583 1.496 9.296 3.625 13.535.093.184-.115.47-.316.316-2.687-2.074-6.729-2.636-9.125-5.069-.141 1.398-.245 2.801-.307 4.207 2.451 2.467 5.654 4.224 8.915 5.438 5.311 1.979 10.98 2.911 16.619 3.355.363 0 .726-.011 1.092-.015.346-4.048-.093-8.125-.462-12.172-.317-3.468-1.205-7.502 1.145-10.463 2.033-2.558 5.034-3.897 7.788-5.506 3.688-2.152 7.375-4.303 11.583-5.248.15-.035.282.068.291.222.184 3.247 1.166 6.578.713 9.837-.489 3.542-3.007 6.432-3.243 9.999-.117 1.77-.164 3.538-.446 5.293-.302 1.875-.762 3.714-1.236 5.55-.125.48-.256.963-.388 1.449.428-.032.856-.067 1.28-.099 2.656-.184 5.307-.296 7.964-.317 2.609-.463 5.217-.921 7.835-1.24 3.462-.422 6.976-.487 10.202-1.976 3.216-1.486 6.324-3.233 9.459-4.887 3.096-1.636 6.202-3.261 9.36-4.77-.564-2.775-1.099-5.555-1.714-8.319z" style="opacity:.4;fill:#b17b56"/>
		<path d="M325.779 242.358c-.32-2.27-.271-4.554-.548-6.821-.275-2.252-.929-4.395-1.79-6.48-.163 2.572-.276 5.147-.617 7.707-.368 2.761-1.244 5.4-1.768 8.132-.678 3.521-.999 7.079-1.081 10.647 1.914.288 3.837.502 5.76.653.363 0 .726-.011 1.092-.015.239-2.806.098-5.625-.13-8.438-.324-1.792-.665-3.582-.918-5.385zm30.668-43.8c.411 3.392-.621 6.877-1.932 9.971-1.354 3.2-3.096 6.681-5.63 9.123-3.539 3.413-8.68 3.511-12.813 5.903 1.482.007 2.968.019 4.448-.07 1.798-.106 4.063-.177 5.66-1.126 1.716-1.018 3.029-2.533 4.444-3.913 1.466-1.429 3.118-2.639 4.671-3.967 3.196-2.732 5.625-5.908 7.799-9.487.616-1.009 1.228-2.022 1.858-3.02-1.325-1.254-2.618-2.54-3.915-3.825-1.776-.7-3.556-1.391-5.335-2.082.377.744.634 1.576.745 2.493zm1.346 24.686c-1.414 1.086-2.939 2.012-4.354 3.093 3.686.025 7.294-1.419 9.611-4.387 1.466-1.879 2.501-4.073 3.371-6.279.493-1.257.681-2.585.98-3.882-2.053 2.526-3.828 5.268-5.925 7.76-1.116 1.33-2.303 2.634-3.683 3.695zm5.06 6.552c1.897-.404 3.343-2.531 4.318-4.015 1.166-1.774 2.157-3.648 3.137-5.527 1.254-2.4 2.507-4.745 3.495-7.277.282-.726.558-1.454.836-2.184-.047-.048-.09-.095-.134-.143-.713-.761-1.423-1.526-2.13-2.29-.669 7.913-6.176 14.35-9.522 21.436zm9.021-2.522c-2.424 3.107-5.647 5.574-7.621 9.023 5.021-.215 6.066-4.986 7.621-9.023zm.583 8.638c-1.202 1.787-2.479 3.531-3.513 5.424 2.099-1.549 3.895-3.483 5.523-5.51 1.756-2.178 3.547-4.416 4.688-6.989 1.443-3.258 2.229-6.798 3.553-10.098-.504-.458-1.014-.901-1.504-1.335-1.345 3.83-2.98 7.558-4.761 11.206-1.218 2.499-2.429 4.992-3.986 7.302zm10.085 5.371c-.189-3.176-.651-6.325-1.249-9.447-2.06 5.257-3.454 10.731-4.692 16.233.901-.485 1.808-.969 2.711-1.446 1.101-.583 2.206-1.161 3.313-1.737.033-1.228-.015-2.447-.083-3.603zm-16.776 11.393c-.497-3.822-3.295-6.941-5.995-9.48-2.52-2.365-5.287-4.441-7.845-6.763-.022 2.187.68 4.37.833 6.552.174 2.484.201 4.981.479 7.457.149 1.3.288 2.625.456 3.953 1.985-.343 3.97-.667 5.958-.909 2.05-.251 4.121-.376 6.137-.747-.008-.021-.018-.039-.023-.063zm-29.562-5.525c-.287-.365-.713-.646-1.126-.606-.368-.079-.806.022-.99.303-.224.343.056.59.345.746.415.23.84.292 1.314.222.21-.031.646-.421.457-.665zm2.633-1.587c-.206-.192-.473-.02-.654.128-.119.097-.329.242-.492.408-.201-.044-.415-.027-.587.09-.131.091-.277.259-.249.435.058.378.477.778.882.742.253-.023.408-.208.5-.432.128-.01.251-.032.361-.107.197-.137.345-.414.354-.653.005-.19.046-.462-.115-.611zm3.537 1.401c.025-.073.03-.151-.03-.184-.125-.067-.251-.115-.394-.089-.21.04-.41.231-.435.451-.025.239.208.405.429.426.227.023.391-.191.438-.394.015-.066.024-.147-.008-.21zm-3.978 1.728c-.177-.351-.549-.519-.905-.301-.374.229-.547.695-.55 1.112 0 .117.133.14.217.11.039-.013.078-.039.117-.067.192.192.475.261.751.152.416-.166.562-.622.37-1.006zm-4.711.832c-.086-.11-.123-.244-.217-.349-.121-.136-.269-.107-.415-.029-.176.091-.28.317-.374.48-.061.111-.11.231-.16.35-.004.007-.007.015-.011.024-.006.015-.011.031-.017.045-.04.087-.079.214-.034.307.011.022.027.038.045.049.092.14.298.208.463.234.284.047.605.032.797-.217.237-.307.143-.611-.077-.894zm-3.038-.53c-.118-.008-.219-.038-.324-.092-.063-.032-.129-.079-.202-.073-.133.01-.25.121-.316.229-.081.136-.08.291.035.402.136.13.324.049.446-.046.011-.01.022-.022.033-.034.065.004.132 0 .195-.004.159-.012.37-.366.133-.382zm1.827-34.342c-.289-.368-.714-.647-1.127-.609-.368-.077-.805.021-.989.303-.225.344.057.59.343.747.42.229.842.292 1.316.222.209-.031.645-.42.457-.663zm2.633-1.589c-.207-.194-.472-.019-.652.128-.119.097-.331.243-.494.409-.201-.044-.414-.028-.586.09-.132.089-.278.26-.25.436.056.379.477.776.88.741.253-.021.409-.208.501-.432.128-.01.251-.031.361-.108.197-.134.346-.412.352-.653.008-.19.047-.463-.112-.611zm3.537 1.401c.026-.073.031-.15-.031-.186-.124-.065-.249-.111-.393-.087-.208.04-.411.231-.433.45-.028.239.206.404.428.428.228.021.39-.193.439-.394.014-.066.023-.147-.01-.211zm-3.98 1.73c-.175-.353-.55-.521-.905-.303-.374.23-.544.694-.549 1.114-.001.113.13.14.217.108.039-.014.077-.039.116-.067.191.191.476.26.751.151.416-.164.561-.621.37-1.003zm-4.71.832c-.085-.112-.123-.249-.217-.351-.12-.135-.269-.105-.415-.028-.173.091-.279.316-.371.48-.064.11-.111.231-.162.348-.003.008-.006.018-.011.025-.006.015-.012.03-.017.047-.037.085-.08.213-.034.304.011.024.027.038.044.049.092.142.297.208.462.234.285.049.607.032.8-.216.235-.308.14-.611-.079-.892zm-3.037-.532c-.118-.007-.219-.038-.324-.092-.064-.032-.128-.08-.202-.073-.134.011-.249.122-.317.23-.082.136-.079.289.035.402.137.129.325.048.445-.047.011-.009.022-.021.034-.034.065.004.132-.001.194-.005.161-.011.371-.364.135-.381zm45.088 25.214c-.288-.365-.712-.646-1.125-.607-.369-.079-.806.022-.99.303-.224.344.059.588.344.747.419.23.84.292 1.315.222.21-.031.647-.421.456-.665zm2.636-1.587c-.207-.194-.475-.02-.654.128-.12.096-.33.241-.493.408-.203-.044-.415-.027-.587.091-.13.091-.276.261-.251.435.06.38.478.777.884.742.253-.023.407-.208.499-.432.127-.01.252-.032.362-.109.196-.133.346-.412.354-.649.005-.196.046-.466-.114-.614z" style="opacity:.4;fill:#b17b56"/>
		<path d="M378.179 241.52c.023-.072.03-.148-.033-.182-.123-.067-.251-.116-.392-.089-.209.039-.412.232-.435.45-.027.239.207.405.427.426.229.023.391-.191.439-.394.016-.066.024-.146-.006-.211zm-3.98 1.729c-.176-.351-.55-.518-.908-.301-.374.229-.543.696-.549 1.113 0 .117.132.141.217.11.04-.014.078-.039.116-.067.193.191.477.259.751.151.417-.166.564-.622.373-1.006zm-4.711.834c-.087-.111-.124-.247-.216-.35-.122-.136-.272-.104-.418-.029-.175.092-.279.317-.372.481-.063.11-.111.229-.161.349-.002.007-.007.015-.01.024-.007.016-.014.031-.018.046-.037.087-.079.214-.034.306.013.023.027.038.045.05.092.14.296.208.463.236.282.046.607.031.796-.217.239-.31.144-.614-.075-.896zm-3.037-.531c-.121-.008-.219-.038-.327-.092-.061-.033-.126-.08-.2-.074-.134.012-.251.122-.315.23-.084.136-.082.29.034.403.134.129.322.048.444-.047.012-.009.021-.021.032-.034.066.003.132-.002.196-.005.16-.011.373-.364.136-.381zm-5.243-3.892c-.286-.368-.711-.649-1.124-.609-.37-.079-.806.023-.99.303-.225.343.057.591.343.748.418.229.841.292 1.316.221.207-.033.646-.423.455-.663zm2.636-1.59c-.208-.194-.475-.018-.653.127-.121.098-.33.242-.493.41-.201-.044-.414-.028-.585.089-.132.093-.279.26-.252.435.058.379.477.777.884.744.252-.023.405-.208.497-.432.128-.01.253-.032.364-.11.196-.134.345-.412.354-.651.004-.191.044-.463-.116-.612zm3.536 1.401c.026-.073.031-.151-.03-.185-.124-.065-.249-.113-.394-.087-.21.04-.411.232-.434.45-.028.239.207.405.426.426.227.023.393-.192.441-.393.014-.067.025-.148-.009-.211zm-3.979 1.728c-.175-.352-.551-.52-.905-.3-.374.228-.547.693-.55 1.11-.001.117.131.143.216.112.041-.016.078-.039.116-.068.192.194.477.262.753.15.416-.163.562-.621.37-1.004zm-4.71.833c-.086-.111-.123-.247-.217-.35-.12-.134-.269-.106-.417-.028-.176.091-.279.316-.372.48-.061.109-.11.229-.16.348-.003.009-.006.018-.009.026-.009.014-.016.029-.02.046-.039.087-.079.214-.034.305.012.024.028.039.044.05.093.139.296.208.464.234.284.047.605.032.796-.218.239-.307.145-.611-.075-.893zm-3.038-.531c-.12-.009-.219-.037-.323-.092-.062-.033-.129-.08-.203-.073-.134.012-.249.12-.316.229-.083.137-.081.291.035.403.135.127.325.047.445-.047.012-.009.022-.022.032-.034.066.003.132-.002.196-.005.16-.01.371-.364.134-.381zm-.537-34.062c-.321-.409-.796-.721-1.253-.677-.412-.087-.898.024-1.103.338-.25.38.064.656.382.831.466.255.937.325 1.466.246.231-.034.716-.466.508-.738zm2.933-1.769c-.231-.216-.529-.021-.728.142-.134.108-.365.271-.549.455-.225-.047-.46-.03-.651.103-.147.101-.31.288-.279.483.066.422.53.866.983.826.282-.024.45-.233.555-.479.141-.014.28-.036.404-.121.218-.149.383-.458.393-.725.005-.216.05-.519-.128-.684zm3.936 1.56c.031-.08.037-.167-.033-.204-.14-.074-.278-.127-.437-.097-.234.044-.458.255-.485.499-.03.267.232.451.477.476.254.024.436-.214.488-.439.018-.075.027-.164-.01-.235zm-4.428 1.923c-.195-.389-.613-.577-1.011-.334-.416.253-.606.773-.609 1.239-.001.128.145.157.24.122.044-.016.087-.042.13-.074.214.214.531.289.837.168.461-.184.626-.692.413-1.121zm-5.246.928c-.095-.122-.138-.273-.243-.387-.134-.151-.299-.119-.462-.033-.194.102-.313.354-.414.536-.071.123-.125.257-.179.387-.005.01-.007.018-.012.028-.007.017-.017.034-.023.052-.042.096-.087.238-.036.341.014.024.03.042.049.055.102.157.332.23.518.262.314.052.673.033.887-.243.266-.346.16-.683-.085-.998zm-3.383-.59c-.132-.008-.243-.041-.361-.102-.068-.037-.145-.089-.226-.084-.149.015-.277.136-.351.257-.094.152-.09.323.038.449.149.143.359.052.495-.053.014-.01.025-.023.037-.037.072.004.148-.001.218-.007.176-.009.414-.405.15-.423z" style="opacity:.4;fill:#b17b56"/>
		<path d="M302.456 88.915c0 .288-.234.521-.523.521-.288 0-.522-.233-.522-.521 0-.288.234-.522.522-.522.289 0 .523.234.523.522zm4.305-11.48c0 .36-.293.652-.652.652-.36 0-.653-.292-.653-.652 0-.36.293-.652.653-.652.359-.001.652.291.652.652zm16.023-19.403c0 .433-.349.783-.782.783-.434 0-.784-.35-.784-.783 0-.432.35-.783.784-.783.433 0 .782.351.782.783zm-42.897-8.385c0 .145-.118.261-.262.261-.143 0-.26-.117-.26-.261 0-.144.116-.261.26-.261.145.001.262.117.262.261zm45.92-15.394c0 .361-.293.653-.653.653-.361 0-.652-.292-.652-.653 0-.36.291-.652.652-.652.36 0 .653.292.653.652zm5.087 11.937c0 .108-.088.196-.196.196-.107 0-.195-.088-.195-.196 0-.108.088-.196.195-.196.108.001.196.089.196.196zm12.785 54.205c0 .217-.175.392-.392.392-.216 0-.391-.175-.391-.392 0-.216.175-.391.391-.391.217 0 .392.175.392.391zM202.487 58.127c-.289 0-.522-.233-.522-.522 0-.288.234-.521.522-.521.288 0 .522.233.522.521 0 .289-.234.522-.522.522zm11.48 4.306c-.36 0-.652-.292-.652-.652 0-.361.292-.653.652-.653.36 0 .652.292.652.653 0 .36-.292.652-.652.652zm19.403 16.023c-.432 0-.783-.35-.783-.783 0-.432.351-.782.783-.782.433 0 .783.35.783.782-.001.433-.351.783-.783.783zm8.383-42.897c-.143 0-.259-.117-.259-.261 0-.144.116-.26.259-.26.146 0 .263.116.263.26 0 .144-.118.261-.263.261zm15.395 45.92c-.36 0-.652-.292-.652-.653 0-.36.292-.652.652-.652.361 0 .653.292.653.652 0 .361-.292.653-.653.653zm-11.937 5.087c-.107 0-.196-.088-.196-.196 0-.107.089-.196.196-.196.108 0 .195.088.195.196 0 .109-.087.196-.195.196zm-54.204 12.785c-.216 0-.392-.175-.392-.392 0-.216.175-.391.392-.391.216 0 .392.175.392.391 0 .217-.176.392-.392.392zM22.196 53.136c-.289 0-.523-.233-.523-.522 0-.288.234-.522.523-.522.288 0 .521.234.521.522.001.288-.233.522-.521.522zm11.48 4.305c-.36 0-.652-.292-.652-.653 0-.361.292-.652.652-.652.36 0 .653.291.653.652 0 .361-.293.653-.653.653zm19.403 16.024c-.433 0-.783-.35-.783-.783 0-.432.351-.783.783-.783.432 0 .782.351.782.783 0 .433-.35.783-.782.783zm8.383-42.898c-.143 0-.26-.117-.26-.262 0-.144.116-.261.26-.261.146 0 .263.117.263.261 0 .145-.118.262-.263.262zm15.395 45.92c-.361 0-.652-.292-.652-.653 0-.36.291-.652.652-.652.36 0 .651.292.651.652.001.361-.29.653-.651.653zM64.92 81.575c-.107 0-.196-.088-.196-.196 0-.107.089-.195.196-.195.108 0 .196.088.196.195 0 .108-.088.196-.196.196zM10.715 94.359c-.216 0-.391-.175-.391-.392 0-.216.175-.391.391-.391.217 0 .392.175.392.391 0 .218-.174.392-.392.392z" style="fill:#ecf3d3"/>
  </g>
</svg>
