<svg xmlns="http://www.w3.org/2000/svg" width="150" height="60" fill="none" viewBox="0 0 24 24">
  <path fill="#e6e6e6" d="M2.68936 6.70456c-.16317-.38072-.60408-.55709-.9848-.39392-.38072.16317-.55709.60408-.39392.9848l1.37872-.59088ZM15.5872 13.3287l-.2747-.6979.2747.6979Zm-6.54575.409c.22591-.3471.12759-.8117-.2196-1.0376-.34719-.2259-.81177-.1276-1.03768.2196l1.25728.818ZM6.37136 15.091c-.22591.3471-.12759.8117.2196 1.0376.34719.2259.81177.1276 1.03768-.2196l-1.25728-.818ZM22.6894 7.29544c.1631-.38072-.0132-.82163-.394-.9848-.3807-.16317-.8216.0132-.9848.39392l1.3788.59088ZM19 11.1288l-.5133-.5468.5133.5468Zm.9697 2.0304c.2929.2929.7677.2929 1.0606 0 .2929-.2929.2929-.7678 0-1.0607l-1.0606 1.0607ZM11.25 16.5c0 .4142.3358.75.75.75s.75-.3358.75-.75h-1.5Zm5.1214-.591c.2259.3472.6905.4455 1.0376.2196.3472-.2259.4455-.6905.2196-1.0376l-1.2572.818ZM5.53033 11.6592c.29289-.2929.29289-.7678 0-1.0607-.29289-.2929-.76777-.2929-1.06066 0l1.06066 1.0607Zm-2.56066.4393c-.29289.2929-.29289.7678 0 1.0607.29289.2929.76777.2929 1.06066 0l-1.06066-1.0607ZM12 13.25c-3.22389 0-5.53867-1.6054-7.0754-3.26034-.76815-.82723-1.33135-1.65682-1.70201-2.27952-.1849-.31064-.32072-.56782-.40919-.74477-.04421-.08841-.07651-.15662-.09713-.20126a3.90339 3.90339 0 0 1-.02216-.04878c-.00224-.00503-.00375-.00849-.00454-.0103l-.00065-.00148.00009.00019a.00663.00663 0 0 0 .00014.00033C2.68925 6.7043 2.68936 6.70456 2 7c-.68936.29544-.68923.29575-.68908.29609l.00035.00081a.21021.21021 0 0 0 .00091.0021c.00069.00162.00158.00366.00265.00612a3.83676 3.83676 0 0 0 .0087.01971 5.22031 5.22031 0 0 0 .031.06828c.02674.05791.06573.14009.11723.24308.10293.20587.25618.49556.4619.84117.41059.6898 1.03489 1.61024 1.89174 2.53294C5.53867 12.8554 8.22389 14.75 12 14.75v-1.5Zm3.3125-.6192c-.9704.382-2.0708.6192-3.3125.6192v1.5c1.4382 0 2.7246-.2758 3.8619-.7234l-.5494-1.3958Zm-7.52833.2889L6.37136 15.091l1.25728.818 1.41281-2.1713-1.25728-.818ZM22 7c-.6894-.29544-.6893-.29559-.6892-.29573 0-.00004 0-.00017.0001-.00025 0-.00014.0001-.00026.0001-.00034.0001-.00016.0001-.00019.0001-.00008-.0001.0002-.0004.00092-.001.00216-.0011.00247-.0031.00699-.006.01348a4.3637 4.3637 0 0 1-.0283.06201c-.0263.05632-.0672.1417-.1232.25142-.112.2196-.2836.53564-.5172.91053-.4685.75196-1.1791 1.72877-2.1487 2.6388l1.0266 1.0937c1.089-1.0222 1.8784-2.10983 2.3952-2.93924.2591-.41578.4515-.76966.5804-1.02231.0644-.1264.1131-.22772.1464-.29908a6.15121 6.15121 0 0 0 .0384-.08403c.0045-.01007.0081-.01812.0107-.02408.0013-.00298.0023-.00543.0032-.00736.0004-.00096.0007-.00179.001-.00248.0002-.00035.0003-.00066.0004-.00094a.00112.00112 0 0 0 .0002-.0004C22.6893 7.29561 22.6894 7.29544 22 7Zm-3.5133 3.582c-.859.8062-1.9128 1.5523-3.1742 2.0488l.5494 1.3958c1.4736-.58 2.6847-1.4436 3.6514-2.3509l-1.0266-1.0937Zm-.017 1.0772 1.5 1.5 1.0606-1.0607-1.5-1.5-1.0606 1.0607ZM11.25 14v2.5h1.5V14h-1.5Zm3.7086-.2623 1.4128 2.1713 1.2572-.818-1.4128-2.1713-1.2572.818ZM4.46967 10.5985l-1.5 1.5 1.06066 1.0607 1.5-1.5-1.06066-1.0607Z"/>
</svg>
